<svg width="704" height="525" viewBox="0 0 704 525" fill="none" xmlns="http://www.w3.org/2000/svg">
<path d="M703.617 460.728H0V461.08H703.617V460.728Z" fill="#EBEBEB"/>
<path d="M633.115 483.371H586.507V483.723H633.115V483.371Z" fill="#EBEBEB"/>
<path d="M466.104 487.198H453.875V487.55H466.104V487.198Z" fill="#EBEBEB"/>
<path d="M585.1 470.312H558.095V470.663H585.1V470.312Z" fill="#EBEBEB"/>
<path d="M134.602 472.676H73.8235V473.028H134.602V472.676Z" fill="#EBEBEB"/>
<path d="M156.048 472.676H147.14V473.028H156.048V472.676Z" fill="#EBEBEB"/>
<path d="M316.839 478.614H185.009V478.966H316.839V478.614Z" fill="#EBEBEB"/>
<path d="M333.514 397.966H61.7916C59.663 397.962 57.6228 397.114 56.1189 395.607C54.615 394.101 53.7704 392.059 53.7704 389.93V7.96494C53.7889 5.8485 54.6417 3.82483 56.1436 2.3335C57.6455 0.842171 59.6751 0.00362558 61.7916 0H333.514C335.646 0 337.689 0.846575 339.196 2.35349C340.703 3.8604 341.55 5.90421 341.55 8.0353V389.93C341.55 392.062 340.703 394.105 339.196 395.612C337.689 397.119 335.646 397.966 333.514 397.966V397.966ZM61.7916 0.281448C59.7563 0.285176 57.8056 1.09633 56.3677 2.53686C54.9298 3.97739 54.1222 5.92959 54.1222 7.96494V389.93C54.1222 391.966 54.9298 393.918 56.3677 395.359C57.8056 396.799 59.7563 397.61 61.7916 397.614H333.514C335.551 397.61 337.503 396.8 338.943 395.359C340.384 393.919 341.194 391.967 341.198 389.93V7.96494C341.194 5.9283 340.384 3.97613 338.943 2.536C337.503 1.09587 335.551 0.285168 333.514 0.281448H61.7916Z" fill="#EBEBEB"/>
<path d="M637.913 397.966H366.176C364.046 397.962 362.005 397.114 360.499 395.608C358.992 394.102 358.145 392.06 358.141 389.93V7.96494C358.163 5.84722 359.019 3.82356 360.523 2.33262C362.027 0.841679 364.058 0.00358604 366.176 0H637.913C640.027 0.00732394 642.053 0.847505 643.552 2.33844C645.051 3.82937 645.902 5.85093 645.92 7.96494V389.93C645.92 392.057 645.078 394.096 643.577 395.602C642.076 397.108 640.039 397.958 637.913 397.966V397.966ZM366.176 0.281448C364.14 0.285168 362.187 1.09587 360.747 2.536C359.307 3.97613 358.497 5.9283 358.493 7.96494V389.93C358.497 391.967 359.307 393.919 360.747 395.359C362.187 396.8 364.14 397.61 366.176 397.614H637.913C639.95 397.61 641.902 396.8 643.342 395.359C644.782 393.919 645.593 391.967 645.597 389.93V7.96494C645.593 5.9283 644.782 3.97613 643.342 2.536C641.902 1.09587 639.95 0.285168 637.913 0.281448H366.176Z" fill="#EBEBEB"/>
<path d="M341.029 167.292H141.23V460.236H341.029V167.292Z" fill="#F0F0F0"/>
<path d="M333.965 176.509H148.28V230.617H333.965V176.509Z" fill="#E0E0E0"/>
<path d="M158.835 185.262H148.28V230.603H158.835V185.262Z" fill="#EBEBEB"/>
<path d="M209.847 185.262H199.292V230.603H209.847V185.262Z" fill="#EBEBEB"/>
<path d="M267.743 184.123L257.342 185.916L265.044 230.598L275.445 228.806L267.743 184.123Z" fill="#EBEBEB"/>
<path d="M171.908 191.243H161.353V230.617H171.908V191.243Z" fill="#EBEBEB"/>
<path d="M196.154 191.243H185.6V230.617H196.154V191.243Z" fill="#EBEBEB"/>
<path d="M257.355 191.243H246.801V230.617H257.355V191.243Z" fill="#EBEBEB"/>
<path d="M223.71 189.877L213.407 192.167L221.949 230.603L232.252 228.313L223.71 189.877Z" fill="#EBEBEB"/>
<path d="M181.027 183.011H175.749V230.603H181.027V183.011Z" fill="#EBEBEB"/>
<path d="M243.761 183.011H238.484V230.603H243.761V183.011Z" fill="#EBEBEB"/>
<path d="M148.294 293.296H333.979V239.188L148.294 239.188V293.296Z" fill="#E0E0E0"/>
<path d="M323.41 293.282H333.965V247.941H323.41V293.282Z" fill="#EBEBEB"/>
<path d="M272.412 293.282H282.967V247.941H272.412V293.282Z" fill="#EBEBEB"/>
<path d="M206.817 291.48L217.218 293.273L224.92 248.591L214.519 246.798L206.817 291.48Z" fill="#EBEBEB"/>
<path d="M310.337 293.296H320.892V253.921H310.337V293.296Z" fill="#EBEBEB"/>
<path d="M286.105 293.296H296.659V253.921H286.105V293.296Z" fill="#EBEBEB"/>
<path d="M224.904 293.296H235.458V253.921H224.904V293.296Z" fill="#EBEBEB"/>
<path d="M250.041 290.995L260.344 293.285L268.887 254.848L258.584 252.559L250.041 290.995Z" fill="#EBEBEB"/>
<path d="M301.218 293.282H306.496V245.689H301.218V293.282Z" fill="#EBEBEB"/>
<path d="M238.498 293.282H243.775V245.689H238.498V293.282Z" fill="#EBEBEB"/>
<path d="M158.835 247.941H148.28V293.282H158.835V247.941Z" fill="#EBEBEB"/>
<path d="M171.908 253.907H161.353V293.282H171.908V253.907Z" fill="#EBEBEB"/>
<path d="M196.154 253.907H185.6V293.282H196.154V253.907Z" fill="#EBEBEB"/>
<path d="M181.027 245.689H175.749V293.282H181.027V245.689Z" fill="#EBEBEB"/>
<path d="M333.965 301.852H148.28V355.96H333.965V301.852Z" fill="#E0E0E0"/>
<path d="M265.418 310.605H254.864V355.946H265.418V310.605Z" fill="#EBEBEB"/>
<path d="M323.323 309.463L312.922 311.255L320.624 355.938L331.025 354.145L323.323 309.463Z" fill="#EBEBEB"/>
<path d="M227.479 316.585H216.925V355.96H227.479V316.585Z" fill="#EBEBEB"/>
<path d="M251.726 316.585H241.172V355.96H251.726V316.585Z" fill="#EBEBEB"/>
<path d="M312.927 316.585H302.372V355.96H312.927V316.585Z" fill="#EBEBEB"/>
<path d="M279.286 315.221L268.983 317.51L277.525 355.947L287.828 353.657L279.286 315.221Z" fill="#EBEBEB"/>
<path d="M236.598 308.353H231.321V355.946H236.598V308.353Z" fill="#EBEBEB"/>
<path d="M299.333 308.353H294.056V355.946H299.333V308.353Z" fill="#EBEBEB"/>
<path d="M201.968 309.473L191.567 311.266L199.269 355.948L209.67 354.155L201.968 309.473Z" fill="#EBEBEB"/>
<path d="M191.567 316.585H181.012V355.96H191.567V316.585Z" fill="#EBEBEB"/>
<path d="M157.932 315.221L147.629 317.51L156.171 355.947L166.474 353.657L157.932 315.221Z" fill="#EBEBEB"/>
<path d="M177.987 308.353H172.71V355.946H177.987V308.353Z" fill="#EBEBEB"/>
<path d="M106.753 460.996H141.23L141.23 167.292H106.753L106.753 460.996Z" fill="#E0E0E0"/>
<path d="M457.97 453.326H428.686L444.081 327.886C444.45 325.265 445.738 322.86 447.714 321.1C449.691 319.34 452.228 318.338 454.874 318.274H582.595L563.865 453.27L457.97 453.326Z" fill="#F5F5F5"/>
<path d="M550.848 453.326H580.132L595.541 327.886C595.729 326.68 595.65 325.447 595.309 324.275C594.968 323.104 594.374 322.021 593.569 321.104C592.763 320.187 591.766 319.458 590.648 318.969C589.53 318.48 588.318 318.243 587.098 318.274H577.036C574.395 318.355 571.867 319.362 569.894 321.119C567.92 322.876 566.628 325.272 566.243 327.886L550.848 453.326Z" fill="#F0F0F0"/>
<path d="M540.068 453.129L545.373 392.477C545.485 391.162 546.045 389.924 546.96 388.971C547.874 388.019 549.087 387.408 550.397 387.243L552.579 386.961C554.339 386.741 555.97 385.921 557.198 384.64C558.426 383.358 559.175 381.693 559.319 379.925L560.29 368.864C560.386 367.792 560.257 366.711 559.913 365.691C559.568 364.671 559.014 363.734 558.288 362.94C557.561 362.146 556.677 361.512 555.691 361.078C554.706 360.644 553.641 360.42 552.564 360.421H601.508C602.585 360.42 603.65 360.644 604.635 361.078C605.62 361.512 606.504 362.146 607.231 362.94C607.958 363.734 608.511 364.671 608.856 365.691C609.201 366.711 609.33 367.792 609.234 368.864L608.263 379.925C608.118 381.693 607.369 383.358 606.142 384.64C604.914 385.921 603.283 386.741 601.522 386.961L599.341 387.243C598.032 387.411 596.82 388.022 595.906 388.974C594.992 389.926 594.432 391.163 594.317 392.477L589.012 453.129C588.822 455.261 587.842 457.244 586.264 458.689C584.686 460.135 582.624 460.937 580.484 460.939H531.54C533.68 460.937 535.742 460.135 537.32 458.689C538.898 457.244 539.878 455.261 540.068 453.129V453.129Z" fill="#E6E6E6"/>
<path d="M405.368 377.35C404.98 372.746 402.877 368.455 399.476 365.328C396.075 362.2 391.624 360.464 387.003 360.463H429.614C434.223 360.482 438.657 362.226 442.043 365.352C445.429 368.477 447.522 372.758 447.909 377.35L452.13 425.421H409.575L405.368 377.35Z" fill="#E6E6E6"/>
<path d="M368.076 360.519H386.989C391.61 360.521 396.061 362.257 399.462 365.384C402.863 368.512 404.966 372.802 405.354 377.406L409.575 425.477H511.065L515.287 377.406C515.671 372.813 517.762 368.531 521.149 365.404C524.536 362.278 528.972 360.535 533.581 360.519H552.508C553.585 360.519 554.65 360.743 555.635 361.177C556.62 361.61 557.505 362.245 558.231 363.039C558.958 363.833 559.512 364.77 559.856 365.79C560.201 366.81 560.33 367.89 560.234 368.963L559.263 380.024C559.118 381.792 558.369 383.457 557.142 384.738C555.914 386.02 554.283 386.839 552.522 387.06L550.341 387.341C549.031 387.507 547.818 388.117 546.903 389.07C545.989 390.023 545.429 391.26 545.317 392.576L540.068 453.129C539.879 455.261 538.898 457.244 537.32 458.689C535.742 460.135 533.68 460.937 531.54 460.939H389.1C386.96 460.937 384.899 460.135 383.321 458.689C381.742 457.244 380.762 455.261 380.572 453.129L375.267 392.478C375.15 391.164 374.589 389.929 373.675 388.977C372.762 388.025 371.551 387.414 370.243 387.243L368.062 386.961C366.301 386.739 364.669 385.919 363.44 384.638C362.21 383.358 361.458 381.694 361.307 379.925L360.35 368.864C360.269 367.8 360.408 366.73 360.76 365.722C361.111 364.714 361.667 363.789 362.392 363.005C363.117 362.222 363.996 361.597 364.975 361.169C365.953 360.741 367.009 360.52 368.076 360.519V360.519Z" fill="#F0F0F0"/>
<path d="M143.763 152.657C143.763 152.657 142.201 142.37 149.702 135.77C157.202 129.17 156.541 125.258 154.388 124.751C152.235 124.245 150.279 130.831 146.986 132.646C146.986 132.646 146.873 123.246 150.222 119.798C153.571 116.35 155.331 107.414 152.136 107.259C148.942 107.105 148.632 112.551 147.914 116.42C147.197 120.29 143.693 125.722 143.693 125.722C143.693 125.722 143.003 117.279 140.878 113.859C138.753 110.44 144.481 102.489 142.285 99.0411C140.09 95.5934 136.108 102.165 136.431 109.581C136.755 116.997 141.709 124.906 140.555 132.646C140.555 132.646 138.373 127.2 136.417 126.707C134.461 126.215 132.477 122.626 131.168 121.289C129.86 119.953 128.199 124.568 131.168 128.846C134.138 133.124 141.709 144.593 140.555 153.853L143.763 152.657Z" fill="#E6E6E6"/>
<path d="M148.238 147.971L150.701 163.38C150.878 164.499 150.81 165.642 150.502 166.733C150.195 167.823 149.655 168.833 148.919 169.695C148.183 170.556 147.27 171.247 146.241 171.722C145.213 172.196 144.094 172.442 142.961 172.442H140.343C139.211 172.442 138.092 172.196 137.063 171.722C136.034 171.247 135.121 170.556 134.385 169.695C133.65 168.833 133.11 167.823 132.802 166.733C132.494 165.642 132.427 164.499 132.604 163.38L135.094 147.971H148.238Z" fill="#E6E6E6"/>
<path d="M295.589 169.431H303.231V136.572H295.589V169.431Z" fill="#EBEBEB"/>
<path d="M258.636 169.431H266.277V136.572H258.636V169.431Z" fill="#EBEBEB"/>
<path d="M211.105 168.125L218.635 169.423L224.217 137.042L216.687 135.744L211.105 168.125Z" fill="#EBEBEB"/>
<path d="M286.119 169.417H293.76V140.892H286.119V169.417Z" fill="#EBEBEB"/>
<path d="M268.556 169.417H276.198V140.892H268.556V169.417Z" fill="#EBEBEB"/>
<path d="M224.201 169.417H231.842V140.892H224.201V169.417Z" fill="#EBEBEB"/>
<path d="M242.425 167.762L249.884 169.42L256.072 141.575L248.613 139.917L242.425 167.762Z" fill="#EBEBEB"/>
<path d="M279.505 169.431H283.333V134.94H279.505V169.431Z" fill="#EBEBEB"/>
<path d="M234.037 169.431H237.865V134.94H234.037V169.431Z" fill="#EBEBEB"/>
<path d="M206.793 143.341H169.544V169.051H206.793V143.341Z" fill="#EBEBEB"/>
<path d="M334.542 153.867H303.343V173.062H334.542V153.867Z" fill="#EBEBEB"/>
<path d="M327.252 136.994H311.646V156.189H327.252V136.994Z" fill="#EBEBEB"/>
<path d="M587.956 111.594H550.848V266.22H587.956V111.594Z" fill="#E0E0E0"/>
<path d="M445.192 266.643H583.974V111.608L445.192 111.608V266.643Z" fill="#E0E0E0"/>
<path d="M440.718 266.643H584.706V111.608L440.718 111.608V266.643Z" fill="#F0F0F0"/>
<path d="M446.881 259.508H578.795V116.533L446.881 116.533V259.508Z" fill="white"/>
<path d="M446.867 259.508H449.316V116.533H446.867V259.508Z" fill="#E0E0E0"/>
<path d="M448.922 219.36V223.215H579.147V219.36H448.922Z" fill="#E0E0E0"/>
<path d="M446.867 219.346L580.85 219.346V212.872L446.867 212.872V219.346Z" fill="#F0F0F0"/>
<path d="M351.808 524.279C502.499 524.279 624.657 517.147 624.657 508.349C624.657 499.551 502.499 492.419 351.808 492.419C201.118 492.419 78.9598 499.551 78.9598 508.349C78.9598 517.147 201.118 524.279 351.808 524.279Z" fill="#F5F5F5"/>
<path d="M453.059 137.656H201.291C195.602 137.656 190.99 142.268 190.99 147.957V444.404C190.99 450.094 195.602 454.705 201.291 454.705H453.059C458.748 454.705 463.36 450.094 463.36 444.404V147.957C463.36 142.268 458.748 137.656 453.059 137.656Z" fill="#FFD700"/>
<path opacity="0.6" d="M453.059 137.656H201.291C195.602 137.656 190.99 142.268 190.99 147.957V444.404C190.99 450.094 195.602 454.705 201.291 454.705H453.059C458.748 454.705 463.36 450.094 463.36 444.404V147.957C463.36 142.268 458.748 137.656 453.059 137.656Z" fill="white"/>
<path d="M419.243 283.065H235.121V314.587H419.243V283.065Z" fill="white"/>
<g opacity="0.4">
<path d="M251.585 301.894V302.724H245.196V293.69H251.388V294.506H246.153V297.729H250.825V298.531H246.153V301.894H251.585Z" fill="#263238"/>
<path d="M252.866 298.826H256.257V299.614H252.866V298.826Z" fill="#263238"/>
<path d="M269.499 298.784V302.724H268.585V298.868C268.585 297.461 267.867 296.701 266.643 296.701C266.325 296.686 266.008 296.741 265.714 296.862C265.42 296.982 265.156 297.165 264.94 297.399C264.725 297.632 264.562 297.909 264.465 298.212C264.368 298.514 264.338 298.834 264.377 299.15V302.724H263.448V298.868C263.448 297.461 262.731 296.701 261.492 296.701C261.175 296.686 260.858 296.741 260.564 296.862C260.27 296.982 260.006 297.165 259.79 297.399C259.574 297.632 259.412 297.909 259.315 298.212C259.217 298.514 259.187 298.834 259.227 299.15V302.724H258.298V295.927H259.184V297.166C259.45 296.751 259.82 296.413 260.257 296.186C260.694 295.958 261.183 295.85 261.675 295.871C262.172 295.829 262.67 295.941 263.101 296.193C263.532 296.445 263.874 296.824 264.081 297.278C264.363 296.825 264.76 296.455 265.233 296.207C265.706 295.96 266.236 295.844 266.769 295.871C267.151 295.842 267.535 295.899 267.892 296.038C268.249 296.177 268.57 296.394 268.832 296.673C269.094 296.953 269.29 297.288 269.406 297.653C269.521 298.018 269.553 298.405 269.499 298.784V298.784Z" fill="#263238"/>
<path d="M277.127 298.503V302.724H276.24V301.655C275.988 302.035 275.638 302.341 275.227 302.539C274.816 302.737 274.359 302.821 273.904 302.781C272.37 302.781 271.427 301.978 271.427 300.81C271.427 299.642 272.103 298.882 274.045 298.882H276.198V298.474C276.198 297.306 275.55 296.673 274.284 296.673C273.458 296.664 272.655 296.948 272.018 297.475L271.61 296.8C272.405 296.16 273.405 295.83 274.425 295.871C274.784 295.827 275.148 295.865 275.491 295.98C275.834 296.096 276.146 296.287 276.406 296.54C276.665 296.792 276.864 297.1 276.989 297.439C277.114 297.779 277.161 298.142 277.127 298.503V298.503ZM276.198 300.684V299.572H274.073C272.764 299.572 272.328 300.079 272.328 300.782C272.328 301.486 272.961 302.063 274.045 302.063C274.504 302.093 274.961 301.976 275.348 301.727C275.736 301.479 276.033 301.114 276.198 300.684Z" fill="#263238"/>
<path d="M279.406 293.788C279.408 293.701 279.427 293.616 279.462 293.536C279.497 293.457 279.547 293.385 279.61 293.325C279.673 293.265 279.747 293.217 279.828 293.186C279.908 293.154 279.995 293.139 280.082 293.141C280.167 293.139 280.251 293.154 280.331 293.185C280.41 293.216 280.482 293.262 280.544 293.321C280.605 293.379 280.654 293.45 280.688 293.527C280.723 293.605 280.741 293.689 280.743 293.774C280.745 293.862 280.729 293.95 280.697 294.032C280.664 294.113 280.616 294.188 280.554 294.251C280.493 294.314 280.419 294.364 280.338 294.398C280.257 294.432 280.17 294.45 280.082 294.45C279.994 294.451 279.906 294.436 279.824 294.403C279.742 294.371 279.668 294.323 279.605 294.261C279.542 294.199 279.492 294.126 279.458 294.045C279.424 293.963 279.406 293.876 279.406 293.788V293.788ZM279.617 295.927H280.532V302.724H279.617V295.927Z" fill="#263238"/>
<path d="M283.079 293.141H283.994V302.724H283.079V293.141Z" fill="#263238"/>
</g>
<path d="M419.243 326.126H235.121V357.648H419.243V326.126Z" fill="white"/>
<g opacity="0.4">
<path d="M252.261 339.889C252.261 341.817 250.853 342.985 248.574 342.985H246.153V345.8H245.196V336.765H248.574C250.868 336.793 252.261 337.961 252.261 339.889ZM251.304 339.889C251.304 338.482 250.361 337.624 248.489 337.624H246.097V342.141H248.489C250.361 342.141 251.304 341.311 251.304 339.889V339.889Z" fill="#263238"/>
<path d="M259.198 341.62V345.842H258.312V344.772C258.06 345.153 257.71 345.459 257.299 345.657C256.888 345.855 256.43 345.938 255.976 345.898C254.442 345.898 253.499 345.096 253.499 343.914C253.499 342.732 254.174 341.958 256.116 341.958H258.27V341.536C258.27 340.382 257.608 339.748 256.342 339.748C255.519 339.738 254.72 340.022 254.09 340.551L253.668 339.861C254.47 339.235 255.466 338.912 256.482 338.946C256.847 338.899 257.217 338.935 257.565 339.052C257.913 339.17 258.23 339.364 258.491 339.622C258.753 339.879 258.953 340.193 259.075 340.539C259.198 340.886 259.24 341.255 259.198 341.62V341.62ZM258.284 343.787V342.676H256.116C254.808 342.676 254.386 343.196 254.386 343.9C254.386 344.603 255.005 345.166 256.102 345.166C256.566 345.201 257.028 345.085 257.421 344.837C257.813 344.589 258.116 344.221 258.284 343.787Z" fill="#263238"/>
<path d="M260.746 345.054L261.154 344.336C261.864 344.831 262.709 345.097 263.575 345.096C264.855 345.096 265.39 344.66 265.39 343.984C265.39 342.211 260.986 343.604 260.986 340.93C260.986 339.819 261.942 338.988 263.673 338.988C264.518 338.981 265.349 339.2 266.08 339.622L265.672 340.353C265.08 339.962 264.383 339.761 263.673 339.777C262.449 339.777 261.9 340.255 261.9 340.902C261.9 342.732 266.305 341.353 266.305 343.956C266.305 345.138 265.278 345.898 263.49 345.898C262.508 345.923 261.544 345.627 260.746 345.054Z" fill="#263238"/>
<path d="M267.051 345.054L267.473 344.336C268.175 344.837 269.017 345.103 269.879 345.096C271.174 345.096 271.695 344.66 271.695 343.984C271.695 342.211 267.304 343.604 267.304 340.93C267.304 339.819 268.261 338.988 269.978 338.988C270.823 338.977 271.654 339.196 272.384 339.622L271.99 340.353C271.392 339.964 270.691 339.763 269.978 339.776C268.754 339.776 268.219 340.255 268.219 340.902C268.219 342.732 272.623 341.353 272.623 343.956C272.623 345.138 271.582 345.898 269.809 345.898C268.823 345.921 267.855 345.625 267.051 345.054V345.054Z" fill="#263238"/>
<path d="M284.135 339.045L281.573 345.828H280.715L278.632 340.269L276.493 345.828H275.635L273.003 339.045H273.876L276.015 344.814L278.196 339.045H278.984L281.151 344.814L283.304 339.045H284.135Z" fill="#263238"/>
<path d="M284.641 342.436C284.641 341.751 284.844 341.082 285.225 340.513C285.605 339.944 286.146 339.5 286.778 339.238C287.411 338.976 288.107 338.907 288.778 339.041C289.45 339.174 290.067 339.504 290.551 339.988C291.035 340.472 291.365 341.089 291.498 341.761C291.632 342.432 291.563 343.128 291.301 343.761C291.039 344.393 290.595 344.934 290.026 345.315C289.457 345.695 288.788 345.898 288.103 345.898C287.644 345.914 287.187 345.835 286.76 345.666C286.333 345.498 285.945 345.244 285.62 344.919C285.295 344.594 285.041 344.206 284.873 343.779C284.704 343.352 284.625 342.895 284.641 342.436V342.436ZM290.622 342.436C290.6 341.94 290.432 341.461 290.14 341.059C289.848 340.658 289.445 340.351 288.979 340.177C288.514 340.002 288.008 339.969 287.524 340.08C287.04 340.191 286.599 340.442 286.257 340.802C285.914 341.162 285.685 341.614 285.598 342.103C285.51 342.592 285.569 343.096 285.765 343.552C285.962 344.008 286.289 344.396 286.704 344.668C287.12 344.94 287.606 345.084 288.103 345.082C288.446 345.088 288.788 345.024 289.105 344.891C289.422 344.759 289.708 344.562 289.945 344.313C290.182 344.065 290.364 343.769 290.481 343.446C290.597 343.123 290.645 342.779 290.622 342.436V342.436Z" fill="#263238"/>
<path d="M296.842 338.988V339.875H296.617C296.295 339.86 295.973 339.915 295.675 340.038C295.377 340.161 295.11 340.348 294.893 340.586C294.675 340.823 294.512 341.106 294.416 341.414C294.32 341.721 294.293 342.047 294.337 342.366V345.828H293.422V339.045H294.295V340.368C294.532 339.909 294.902 339.532 295.356 339.286C295.81 339.04 296.328 338.936 296.842 338.988V338.988Z" fill="#263238"/>
<path d="M304.624 336.329V345.898H303.751V344.561C303.478 345.006 303.092 345.371 302.632 345.618C302.173 345.865 301.656 345.986 301.134 345.968C300.256 345.912 299.432 345.524 298.83 344.882C298.228 344.241 297.893 343.394 297.893 342.514C297.893 341.634 298.228 340.787 298.83 340.145C299.432 339.503 300.256 339.115 301.134 339.059C301.649 339.047 302.158 339.171 302.61 339.418C303.062 339.665 303.441 340.027 303.709 340.466V336.329H304.624ZM303.723 342.507C303.701 342.01 303.534 341.532 303.242 341.13C302.95 340.728 302.546 340.421 302.081 340.247C301.616 340.073 301.11 340.039 300.626 340.151C300.141 340.262 299.701 340.513 299.358 340.873C299.016 341.232 298.787 341.685 298.699 342.174C298.612 342.663 298.67 343.166 298.867 343.622C299.064 344.079 299.39 344.467 299.806 344.739C300.221 345.011 300.708 345.154 301.204 345.152C301.554 345.16 301.902 345.093 302.224 344.957C302.546 344.82 302.836 344.617 303.074 344.36C303.312 344.104 303.493 343.799 303.605 343.468C303.717 343.136 303.757 342.785 303.723 342.436V342.507Z" fill="#263238"/>
</g>
<path opacity="0.2" d="M419.243 389.804H235.121V421.326H419.243V389.804Z" fill="black"/>
<g opacity="0.5">
<path d="M279.899 375.324H276.887L276.24 376.731H275.649L278.112 371.341H278.674L281.137 376.731H280.546L279.899 375.324ZM279.688 374.859L278.393 371.96L277.098 374.859H279.688Z" fill="black"/>
<path d="M281.925 371.045H282.474V376.759H281.925V371.045Z" fill="black"/>
<path d="M286.048 372.678V373.213H285.908C285.711 373.196 285.513 373.223 285.329 373.294C285.145 373.364 284.979 373.475 284.844 373.619C284.708 373.762 284.607 373.934 284.548 374.122C284.488 374.31 284.472 374.509 284.5 374.704V376.773H283.952V372.72H284.486V373.508C284.627 373.224 284.854 372.991 285.134 372.842C285.414 372.693 285.734 372.636 286.048 372.678V372.678Z" fill="black"/>
<path d="M290.523 374.901H287.076C287.086 375.099 287.136 375.292 287.222 375.47C287.308 375.647 287.429 375.806 287.577 375.937C287.724 376.068 287.897 376.168 288.084 376.232C288.271 376.296 288.469 376.322 288.666 376.308C288.9 376.317 289.133 376.274 289.349 376.184C289.565 376.095 289.759 375.959 289.918 375.788L290.214 376.14C289.923 376.445 289.548 376.658 289.137 376.751C288.726 376.844 288.296 376.813 287.902 376.663C287.508 376.513 287.167 376.249 286.923 375.906C286.678 375.562 286.54 375.154 286.527 374.732C286.513 374.465 286.555 374.198 286.649 373.947C286.743 373.696 286.887 373.467 287.073 373.275C287.259 373.082 287.483 372.93 287.73 372.827C287.977 372.724 288.243 372.674 288.511 372.678C288.779 372.671 289.045 372.721 289.292 372.823C289.54 372.925 289.764 373.078 289.949 373.271C290.134 373.464 290.277 373.694 290.369 373.946C290.461 374.197 290.499 374.465 290.481 374.732C290.481 374.732 290.523 374.845 290.523 374.901ZM287.132 374.493H289.946C289.946 374.12 289.798 373.762 289.534 373.498C289.27 373.234 288.912 373.086 288.539 373.086C288.166 373.086 287.808 373.234 287.544 373.498C287.28 373.762 287.132 374.12 287.132 374.493Z" fill="black"/>
<path d="M294.59 374.324V376.829H294.112V376.196C293.963 376.428 293.752 376.613 293.504 376.732C293.255 376.852 292.979 376.9 292.705 376.871C291.79 376.871 291.297 376.393 291.297 375.689C291.297 374.986 291.691 374.535 292.859 374.535H294.112V374.296C294.112 373.607 293.718 373.227 292.958 373.227C292.446 373.208 291.945 373.378 291.551 373.705L291.311 373.297C291.778 372.925 292.361 372.73 292.958 372.748C293.176 372.711 293.399 372.725 293.61 372.79C293.821 372.856 294.014 372.969 294.173 373.123C294.332 373.276 294.453 373.465 294.525 373.674C294.598 373.883 294.62 374.105 294.59 374.324ZM294.056 375.619V374.944H292.775C291.987 374.944 291.734 375.253 291.734 375.675C291.734 376.097 292.114 376.435 292.761 376.435C293.052 376.458 293.343 376.383 293.587 376.222C293.832 376.062 294.016 375.825 294.112 375.549L294.056 375.619Z" fill="black"/>
<path d="M299.741 371.045V376.759H299.22V375.957C299.06 376.225 298.831 376.446 298.556 376.594C298.281 376.743 297.97 376.814 297.658 376.801C297.141 376.758 296.658 376.522 296.307 376.141C295.955 375.759 295.76 375.259 295.76 374.739C295.76 374.22 295.955 373.72 296.307 373.338C296.658 372.956 297.141 372.721 297.658 372.678C297.963 372.67 298.265 372.739 298.536 372.879C298.806 373.019 299.037 373.226 299.206 373.48V371.045H299.741ZM299.206 374.732C299.192 374.438 299.092 374.154 298.919 373.916C298.745 373.678 298.505 373.496 298.229 373.392C297.953 373.289 297.653 373.269 297.366 373.335C297.078 373.401 296.817 373.549 296.613 373.763C296.41 373.976 296.273 374.244 296.22 374.534C296.168 374.824 296.201 375.123 296.317 375.394C296.433 375.665 296.626 375.896 296.871 376.059C297.117 376.221 297.406 376.308 297.7 376.308C297.91 376.321 298.12 376.289 298.316 376.214C298.512 376.139 298.69 376.023 298.838 375.874C298.985 375.724 299.1 375.546 299.173 375.349C299.246 375.152 299.277 374.942 299.262 374.732H299.206Z" fill="black"/>
<path d="M304.736 372.706L302.71 377.251C302.372 378.039 301.936 378.293 301.303 378.293C300.94 378.303 300.587 378.171 300.318 377.927L300.571 377.519C300.769 377.717 301.037 377.828 301.317 377.828C301.683 377.828 301.922 377.66 302.161 377.139L302.33 376.759L300.515 372.706H301.148L302.682 376.154L304.202 372.706H304.736Z" fill="black"/>
<path d="M310.591 374.324V376.829H310.07V376.196C309.921 376.428 309.71 376.613 309.462 376.732C309.213 376.852 308.937 376.9 308.663 376.871C307.748 376.871 307.255 376.393 307.255 375.689C307.255 374.986 307.649 374.535 308.817 374.535H310.098V374.296C310.098 373.607 309.718 373.227 308.958 373.227C308.446 373.208 307.945 373.378 307.551 373.705L307.298 373.297C307.77 372.925 308.357 372.731 308.958 372.748C309.176 372.711 309.399 372.725 309.611 372.79C309.822 372.856 310.015 372.969 310.174 373.123C310.332 373.276 310.453 373.465 310.525 373.674C310.598 373.883 310.62 374.105 310.591 374.324ZM310.042 375.619V374.944H308.775C307.987 374.944 307.734 375.253 307.734 375.675C307.734 376.097 308.114 376.435 308.761 376.435C309.042 376.446 309.319 376.366 309.55 376.206C309.781 376.046 309.953 375.815 310.042 375.549V375.619Z" fill="black"/>
<path d="M320.849 374.409V376.759H320.315V374.465C320.315 373.607 319.878 373.17 319.147 373.17C318.958 373.156 318.768 373.182 318.591 373.247C318.414 373.313 318.252 373.416 318.119 373.55C317.985 373.683 317.882 373.845 317.816 374.022C317.751 374.2 317.724 374.389 317.739 374.578V376.703H317.205V374.465C317.205 373.607 316.768 373.17 316.022 373.17C315.834 373.156 315.644 373.182 315.467 373.247C315.289 373.313 315.128 373.416 314.995 373.55C314.861 373.683 314.758 373.845 314.692 374.022C314.627 374.2 314.6 374.389 314.615 374.578V376.703H314.066V372.65H314.587V373.396C314.742 373.143 314.963 372.938 315.226 372.802C315.488 372.666 315.783 372.603 316.079 372.622C316.374 372.599 316.669 372.669 316.921 372.823C317.174 372.977 317.371 373.207 317.486 373.48C317.65 373.204 317.886 372.979 318.169 372.827C318.451 372.676 318.77 372.605 319.09 372.622C319.333 372.578 319.583 372.595 319.819 372.67C320.054 372.744 320.268 372.876 320.441 373.052C320.614 373.228 320.742 373.443 320.813 373.68C320.884 373.916 320.897 374.166 320.849 374.409V374.409Z" fill="black"/>
<path d="M325.831 374.901H322.439C322.468 375.299 322.653 375.67 322.953 375.934C323.253 376.197 323.645 376.332 324.044 376.308C324.276 376.317 324.507 376.275 324.721 376.185C324.935 376.095 325.126 375.96 325.282 375.788L325.592 376.14C325.394 376.355 325.152 376.526 324.883 376.64C324.613 376.754 324.322 376.809 324.03 376.801C323.751 376.819 323.471 376.778 323.209 376.681C322.947 376.584 322.708 376.434 322.508 376.239C322.307 376.044 322.15 375.809 322.046 375.549C321.943 375.29 321.894 375.012 321.905 374.732C321.905 374.21 322.112 373.709 322.482 373.339C322.851 372.97 323.352 372.762 323.875 372.762C324.397 372.762 324.898 372.97 325.268 373.339C325.637 373.709 325.845 374.21 325.845 374.732C325.845 374.732 325.831 374.845 325.831 374.901ZM322.439 374.493H325.324C325.324 374.111 325.172 373.744 324.902 373.473C324.631 373.203 324.264 373.051 323.882 373.051C323.499 373.051 323.132 373.203 322.862 373.473C322.591 373.744 322.439 374.111 322.439 374.493V374.493Z" fill="black"/>
<path d="M333.655 374.409V376.759H333.106V374.465C333.106 373.607 332.684 373.17 331.952 373.17C331.763 373.153 331.573 373.178 331.394 373.242C331.215 373.307 331.053 373.41 330.919 373.544C330.785 373.679 330.681 373.841 330.617 374.019C330.552 374.198 330.528 374.389 330.545 374.578V376.703H329.996V374.465C329.996 373.607 329.574 373.17 328.828 373.17C328.639 373.153 328.449 373.178 328.27 373.242C328.091 373.307 327.929 373.41 327.795 373.544C327.661 373.679 327.557 373.841 327.493 374.019C327.428 374.198 327.404 374.389 327.421 374.578V376.703H326.872V372.65H327.393V373.396C327.547 373.142 327.767 372.936 328.03 372.8C328.293 372.663 328.589 372.602 328.885 372.622C329.18 372.599 329.474 372.669 329.727 372.823C329.98 372.977 330.177 373.207 330.292 373.48C330.456 373.204 330.692 372.979 330.974 372.827C331.257 372.676 331.576 372.605 331.896 372.622C332.139 372.578 332.389 372.595 332.624 372.67C332.86 372.744 333.073 372.876 333.247 373.052C333.42 373.228 333.548 373.443 333.619 373.68C333.69 373.916 333.702 374.166 333.655 374.409V374.409Z" fill="black"/>
<path d="M339.256 374.732C339.269 375.003 339.227 375.273 339.132 375.527C339.036 375.78 338.889 376.011 338.7 376.205C338.512 376.399 338.285 376.552 338.034 376.655C337.783 376.757 337.514 376.807 337.243 376.801C336.931 376.814 336.621 376.743 336.346 376.594C336.071 376.446 335.841 376.225 335.681 375.957V376.759H335.147V371.045H335.696V373.48C335.864 373.225 336.094 373.018 336.365 372.877C336.636 372.737 336.938 372.668 337.243 372.678C337.514 372.67 337.782 372.718 338.033 372.818C338.284 372.919 338.511 373.071 338.7 373.264C338.889 373.457 339.036 373.687 339.132 373.94C339.227 374.193 339.27 374.463 339.256 374.732ZM338.707 374.732C338.693 374.438 338.593 374.154 338.42 373.916C338.246 373.678 338.006 373.496 337.73 373.392C337.454 373.289 337.154 373.269 336.867 373.335C336.579 373.401 336.318 373.549 336.114 373.763C335.911 373.976 335.774 374.244 335.721 374.534C335.669 374.824 335.702 375.123 335.818 375.394C335.934 375.665 336.127 375.896 336.373 376.059C336.618 376.221 336.907 376.308 337.201 376.308C337.406 376.313 337.61 376.274 337.799 376.196C337.989 376.117 338.16 376 338.301 375.852C338.443 375.704 338.552 375.528 338.622 375.335C338.692 375.142 338.721 374.937 338.707 374.732V374.732Z" fill="black"/>
<path d="M343.914 374.901H340.55C340.561 375.099 340.611 375.292 340.697 375.47C340.783 375.647 340.903 375.806 341.051 375.937C341.199 376.068 341.372 376.169 341.559 376.232C341.746 376.296 341.944 376.322 342.141 376.309C342.375 376.308 342.606 376.257 342.817 376.157C343.029 376.057 343.216 375.912 343.365 375.732L343.675 376.083C343.384 376.389 343.009 376.602 342.598 376.695C342.186 376.788 341.757 376.757 341.363 376.607C340.969 376.456 340.628 376.193 340.383 375.849C340.139 375.506 340.001 375.098 339.988 374.676C339.974 374.409 340.016 374.141 340.11 373.891C340.204 373.64 340.348 373.411 340.534 373.219C340.72 373.026 340.944 372.874 341.191 372.771C341.438 372.668 341.704 372.617 341.972 372.622C342.239 372.615 342.505 372.664 342.751 372.767C342.998 372.869 343.221 373.022 343.405 373.215C343.59 373.409 343.731 373.639 343.821 373.89C343.911 374.142 343.948 374.41 343.928 374.676L343.914 374.901ZM340.522 374.493H343.337C343.337 374.12 343.189 373.762 342.925 373.498C342.661 373.234 342.303 373.086 341.93 373.086C341.556 373.086 341.198 373.234 340.935 373.498C340.671 373.762 340.522 374.12 340.522 374.493Z" fill="black"/>
<path d="M347.08 372.678V373.213H346.953C346.757 373.196 346.559 373.224 346.375 373.294C346.191 373.364 346.025 373.475 345.889 373.619C345.754 373.762 345.653 373.934 345.594 374.122C345.534 374.31 345.518 374.509 345.546 374.704V376.773H344.997V372.72H345.518V373.508C345.661 373.226 345.888 372.994 346.167 372.845C346.447 372.697 346.766 372.638 347.08 372.678V372.678Z" fill="black"/>
<path d="M350.626 372.748C350.626 372.185 350.176 371.805 349.388 371.805C349.111 371.79 348.834 371.837 348.578 371.945C348.322 372.052 348.094 372.216 347.91 372.424L347.502 372.115C347.742 371.844 348.04 371.631 348.374 371.492C348.708 371.353 349.069 371.292 349.43 371.313C350.514 371.313 351.203 371.833 351.203 372.72C351.203 374.029 349.796 374.127 349.796 375.197H349.219C349.219 373.874 350.626 373.747 350.626 372.748ZM349.107 376.393C349.124 376.299 349.174 376.215 349.247 376.154C349.32 376.094 349.412 376.06 349.508 376.06C349.603 376.06 349.695 376.094 349.768 376.154C349.841 376.215 349.891 376.299 349.909 376.393C349.92 376.452 349.918 376.513 349.903 376.571C349.888 376.629 349.86 376.683 349.822 376.729C349.783 376.775 349.735 376.812 349.681 376.838C349.627 376.863 349.568 376.876 349.508 376.876C349.448 376.876 349.388 376.863 349.334 376.838C349.28 376.812 349.232 376.775 349.194 376.729C349.155 376.683 349.128 376.629 349.113 376.571C349.098 376.513 349.095 376.452 349.107 376.393V376.393Z" fill="black"/>
<path d="M354.44 371.369H355.692V375.732H358.394V376.745H354.44V371.369Z" fill="black"/>
<path d="M358.676 374.69C358.648 374.234 358.757 373.781 358.99 373.388C359.222 372.995 359.568 372.681 359.981 372.486C360.394 372.292 360.857 372.226 361.308 372.298C361.759 372.369 362.178 372.575 362.511 372.887C362.844 373.199 363.076 373.605 363.176 374.05C363.275 374.496 363.239 374.961 363.072 375.386C362.904 375.811 362.613 376.176 362.235 376.433C361.858 376.69 361.412 376.828 360.955 376.829C360.663 376.848 360.37 376.807 360.094 376.709C359.818 376.61 359.565 376.455 359.351 376.255C359.137 376.054 358.967 375.812 358.851 375.543C358.735 375.274 358.675 374.983 358.676 374.69V374.69ZM362.011 374.69C361.994 374.486 361.919 374.291 361.793 374.129C361.668 373.967 361.498 373.844 361.304 373.777C361.111 373.71 360.901 373.701 360.703 373.751C360.504 373.801 360.324 373.907 360.184 374.058C360.045 374.208 359.953 374.396 359.918 374.598C359.884 374.8 359.909 375.008 359.991 375.196C360.073 375.384 360.208 375.544 360.379 375.656C360.55 375.769 360.75 375.829 360.955 375.83C361.102 375.833 361.248 375.804 361.383 375.747C361.517 375.689 361.639 375.604 361.738 375.496C361.838 375.389 361.914 375.261 361.961 375.122C362.008 374.983 362.025 374.836 362.011 374.69V374.69Z" fill="black"/>
<path d="M368.315 372.608V376.069C368.354 376.38 368.32 376.696 368.215 376.992C368.111 377.288 367.94 377.555 367.715 377.773C367.49 377.991 367.217 378.154 366.918 378.25C366.62 378.345 366.303 378.369 365.993 378.321C365.269 378.349 364.555 378.147 363.953 377.744L364.431 376.886C364.842 377.18 365.333 377.341 365.839 377.35C366.683 377.35 367.063 376.97 367.063 376.224V376.041C366.894 376.216 366.691 376.353 366.465 376.443C366.239 376.533 365.997 376.573 365.754 376.562C365.477 376.585 365.197 376.551 364.934 376.46C364.67 376.37 364.429 376.226 364.224 376.038C364.019 375.849 363.855 375.62 363.743 375.365C363.631 375.11 363.574 374.835 363.574 374.557C363.574 374.278 363.631 374.003 363.743 373.748C363.855 373.493 364.019 373.264 364.224 373.075C364.429 372.887 364.67 372.743 364.934 372.653C365.197 372.563 365.477 372.528 365.754 372.551C366.019 372.53 366.285 372.573 366.53 372.676C366.774 372.778 366.991 372.938 367.161 373.142V372.608H368.315ZM367.133 374.564C367.138 374.423 367.112 374.282 367.059 374.152C367.005 374.021 366.924 373.904 366.822 373.807C366.72 373.71 366.598 373.635 366.465 373.589C366.332 373.542 366.19 373.524 366.05 373.536C365.906 373.519 365.76 373.533 365.621 373.577C365.483 373.62 365.355 373.692 365.247 373.789C365.139 373.885 365.052 374.004 364.992 374.136C364.933 374.268 364.902 374.412 364.902 374.557C364.902 374.702 364.933 374.845 364.992 374.977C365.052 375.11 365.139 375.228 365.247 375.324C365.355 375.421 365.483 375.493 365.621 375.536C365.76 375.58 365.906 375.594 366.05 375.577C366.189 375.589 366.329 375.571 366.461 375.525C366.593 375.48 366.714 375.407 366.817 375.311C366.919 375.216 367 375.1 367.054 374.971C367.109 374.842 367.136 374.703 367.133 374.564V374.564Z" fill="black"/>
<path d="M371.51 371.369C371.511 371.275 371.532 371.182 371.571 371.096C371.61 371.01 371.666 370.933 371.736 370.87C371.806 370.806 371.888 370.758 371.978 370.728C372.067 370.698 372.161 370.686 372.255 370.694C372.348 370.684 372.441 370.693 372.529 370.721C372.617 370.749 372.699 370.795 372.769 370.855C372.839 370.916 372.896 370.99 372.936 371.074C372.976 371.158 372.998 371.248 373.001 371.341C373.001 371.539 372.923 371.728 372.783 371.868C372.643 372.008 372.453 372.087 372.255 372.087C372.058 372.087 371.868 372.008 371.728 371.868C371.588 371.728 371.51 371.539 371.51 371.341V371.369ZM371.65 372.607H372.847V376.829H371.65V372.607Z" fill="black"/>
<path d="M378.18 374.324V376.703H376.984V374.521C376.984 373.846 376.674 373.536 376.139 373.536C375.605 373.536 375.14 373.888 375.14 374.648V376.703H373.944V372.481H375.098V372.973C375.28 372.786 375.499 372.64 375.742 372.546C375.985 372.451 376.245 372.41 376.505 372.425C376.748 372.412 376.991 372.455 377.215 372.55C377.44 372.644 377.64 372.788 377.801 372.971C377.962 373.153 378.079 373.37 378.145 373.604C378.211 373.839 378.223 374.085 378.18 374.324V374.324Z" fill="black"/>
</g>
<path d="M419.243 387.876H235.121V419.398H419.243V387.876Z" fill="#FFD700"/>
<path d="M303.4 408.534L301.148 405.283H300.473H297.799V408.562H296.251V397.769H300.473C303.287 397.769 304.962 399.176 304.962 401.54C304.997 402.289 304.785 403.028 304.357 403.644C303.93 404.26 303.311 404.717 302.597 404.946L305.159 408.562L303.4 408.534ZM303.4 401.498C303.4 399.95 302.372 399.078 300.388 399.078H297.771V403.932H300.388C302.33 403.947 303.357 403.046 303.357 401.512L303.4 401.498Z" fill="white"/>
<path d="M314.545 404.946H307.917C308.021 405.642 308.382 406.274 308.929 406.716C309.476 407.159 310.17 407.381 310.872 407.338C311.314 407.354 311.754 407.274 312.162 407.104C312.57 406.934 312.936 406.678 313.236 406.353L314.052 407.31C313.45 407.921 312.684 408.346 311.847 408.533C311.009 408.72 310.136 408.661 309.331 408.364C308.525 408.067 307.823 407.544 307.308 406.858C306.793 406.172 306.486 405.351 306.425 404.495C306.396 403.943 306.481 403.39 306.676 402.872C306.87 402.354 307.17 401.882 307.556 401.486C307.942 401.089 308.406 400.777 308.918 400.568C309.431 400.36 309.981 400.259 310.534 400.274C311.085 400.259 311.632 400.359 312.141 400.568C312.65 400.777 313.11 401.091 313.49 401.489C313.871 401.886 314.164 402.359 314.35 402.877C314.537 403.395 314.613 403.946 314.573 404.495C314.573 404.622 314.559 404.805 314.545 404.946ZM307.917 403.876H313.152C313.085 403.229 312.78 402.629 312.296 402.194C311.813 401.758 311.185 401.516 310.534 401.516C309.883 401.516 309.256 401.758 308.772 402.194C308.289 402.629 307.984 403.229 307.917 403.876V403.876Z" fill="white"/>
<path d="M324.452 400.372V407.408C324.452 410.293 322.974 411.63 320.23 411.63C318.83 411.69 317.452 411.262 316.332 410.42L317.036 409.28C317.936 409.979 319.048 410.351 320.188 410.335C322.116 410.335 323.002 409.449 323.002 407.591V406.944C322.638 407.362 322.185 407.693 321.676 407.912C321.167 408.131 320.615 408.233 320.061 408.21C319.013 408.21 318.007 407.794 317.265 407.052C316.524 406.311 316.107 405.305 316.107 404.256C316.107 403.207 316.524 402.202 317.265 401.46C318.007 400.718 319.013 400.302 320.061 400.302C320.64 400.284 321.216 400.402 321.741 400.647C322.266 400.891 322.727 401.255 323.087 401.709V400.442L324.452 400.372ZM323.045 404.242C323.076 403.68 322.937 403.121 322.647 402.639C322.358 402.156 321.93 401.771 321.419 401.534C320.908 401.297 320.338 401.219 319.782 401.309C319.226 401.4 318.711 401.655 318.301 402.042C317.892 402.428 317.608 402.929 317.486 403.479C317.365 404.028 317.411 404.602 317.618 405.125C317.826 405.649 318.186 406.098 318.652 406.414C319.117 406.731 319.667 406.901 320.23 406.902C320.59 406.923 320.951 406.87 321.289 406.745C321.628 406.621 321.937 406.427 322.197 406.178C322.458 405.928 322.664 405.627 322.802 405.294C322.941 404.961 323.009 404.603 323.002 404.242H323.045Z" fill="white"/>
<path d="M327.013 397.839C327.015 397.71 327.042 397.582 327.093 397.463C327.144 397.344 327.219 397.237 327.311 397.147C327.404 397.056 327.514 396.985 327.634 396.938C327.754 396.89 327.883 396.866 328.012 396.868C328.148 396.852 328.287 396.864 328.418 396.905C328.549 396.946 328.67 397.014 328.773 397.105C328.876 397.196 328.958 397.308 329.014 397.434C329.071 397.559 329.1 397.695 329.1 397.832C329.1 397.969 329.071 398.105 329.014 398.231C328.958 398.356 328.876 398.468 328.773 398.559C328.67 398.65 328.549 398.718 328.418 398.759C328.287 398.8 328.148 398.813 328.012 398.796C327.883 398.8 327.755 398.778 327.635 398.732C327.515 398.685 327.405 398.616 327.312 398.527C327.219 398.438 327.145 398.331 327.094 398.213C327.042 398.095 327.015 397.968 327.013 397.839V397.839ZM327.28 400.372H328.758V408.534H327.28V400.372Z" fill="white"/>
<path d="M330.545 407.676L331.164 406.508C332.003 407.052 332.979 407.345 333.979 407.352C335.386 407.352 335.921 406.93 335.921 406.24C335.921 404.411 330.756 406.001 330.756 402.736C330.756 401.329 332.065 400.288 334.162 400.288C335.2 400.271 336.224 400.529 337.131 401.034L336.498 402.202C335.795 401.76 334.978 401.534 334.148 401.554C332.853 401.554 332.22 402.033 332.22 402.68C332.22 404.608 337.398 403.032 337.398 406.212C337.398 407.62 335.991 408.633 333.866 408.633C332.689 408.65 331.533 408.317 330.545 407.676V407.676Z" fill="white"/>
<path d="M343.9 408.098C343.388 408.489 342.757 408.693 342.113 408.675C341.765 408.715 341.414 408.676 341.083 408.562C340.753 408.447 340.453 408.261 340.204 408.015C339.956 407.769 339.766 407.471 339.648 407.142C339.53 406.813 339.487 406.461 339.523 406.114V401.625H338.116V400.414H339.523V398.627H340.931V400.414H343.365V401.625H341.015V406.057C340.982 406.239 340.991 406.425 341.041 406.602C341.092 406.779 341.183 406.942 341.307 407.078C341.431 407.214 341.584 407.32 341.756 407.387C341.927 407.454 342.112 407.481 342.296 407.465C342.712 407.469 343.117 407.335 343.449 407.085L343.9 408.098Z" fill="white"/>
<path d="M352.765 404.946H346.18C346.284 405.644 346.647 406.278 347.197 406.721C347.747 407.164 348.444 407.384 349.149 407.338C349.589 407.354 350.027 407.275 350.433 407.105C350.838 406.935 351.202 406.678 351.499 406.353L352.315 407.31C351.715 407.923 350.95 408.349 350.112 408.536C349.275 408.724 348.402 408.666 347.597 408.368C346.792 408.071 346.091 407.547 345.577 406.86C345.063 406.173 344.759 405.351 344.702 404.495C344.673 403.943 344.758 403.39 344.953 402.872C345.147 402.354 345.447 401.882 345.833 401.485C346.219 401.089 346.683 400.777 347.195 400.568C347.708 400.359 348.258 400.259 348.811 400.274C349.361 400.261 349.907 400.362 350.415 400.572C350.923 400.782 351.382 401.096 351.762 401.493C352.142 401.891 352.435 402.363 352.622 402.88C352.81 403.396 352.887 403.947 352.85 404.495C352.835 404.648 352.807 404.798 352.765 404.946V404.946ZM346.18 403.876H351.428C351.347 403.237 351.036 402.65 350.553 402.224C350.07 401.799 349.448 401.564 348.804 401.564C348.16 401.564 347.538 401.799 347.055 402.224C346.572 402.65 346.261 403.237 346.18 403.876V403.876Z" fill="white"/>
<path d="M359.253 400.288V401.695H358.915C358.549 401.669 358.182 401.726 357.841 401.862C357.501 401.998 357.195 402.209 356.947 402.48C356.7 402.751 356.516 403.074 356.411 403.425C356.306 403.777 356.281 404.147 356.34 404.509V408.576H354.862V400.414H356.269V401.822C356.567 401.306 357.006 400.888 357.535 400.616C358.064 400.344 358.661 400.23 359.253 400.288Z" fill="white"/>
<g opacity="0.6">
<path d="M294.942 172.541L295.575 171.218C296.667 172.134 298.049 172.632 299.473 172.625C301.514 172.625 302.386 171.837 302.386 170.81C302.386 167.996 295.238 169.741 295.238 165.364C295.238 163.535 296.645 161.987 299.755 161.987C301.095 161.965 302.413 162.326 303.554 163.028L302.992 164.435C302.025 163.817 300.903 163.485 299.755 163.478C297.743 163.478 296.94 164.323 296.94 165.35C296.94 168.165 304.103 166.42 304.103 170.768C304.103 172.569 302.696 174.117 299.53 174.117C297.862 174.152 296.236 173.594 294.942 172.541V172.541Z" fill="#263238"/>
<path d="M305.989 162.17C305.991 162.028 306.021 161.888 306.077 161.758C306.133 161.628 306.215 161.511 306.317 161.412C306.419 161.314 306.54 161.237 306.672 161.186C306.804 161.135 306.945 161.111 307.087 161.114C307.226 161.109 307.366 161.131 307.497 161.18C307.628 161.228 307.748 161.303 307.85 161.398C307.952 161.494 308.035 161.609 308.092 161.736C308.149 161.864 308.181 162.002 308.184 162.142C308.184 162.433 308.069 162.712 307.863 162.918C307.657 163.124 307.378 163.239 307.087 163.239C306.795 163.239 306.516 163.124 306.31 162.918C306.105 162.712 305.989 162.433 305.989 162.142V162.17ZM306.27 164.984H307.903V173.934H306.27V164.984Z" fill="#263238"/>
<path d="M319.541 164.942V172.668C319.541 175.834 317.936 177.269 314.911 177.269C313.392 177.317 311.903 176.846 310.689 175.932L311.463 174.68C312.443 175.455 313.661 175.868 314.911 175.848C317.022 175.848 317.979 174.863 317.979 172.836V172.133C317.58 172.593 317.084 172.958 316.527 173.201C315.969 173.445 315.364 173.561 314.756 173.54C314.167 173.574 313.577 173.487 313.023 173.284C312.469 173.082 311.962 172.769 311.533 172.364C311.104 171.959 310.762 171.47 310.529 170.928C310.295 170.387 310.175 169.803 310.175 169.213C310.175 168.623 310.295 168.039 310.529 167.497C310.762 166.955 311.104 166.467 311.533 166.062C311.962 165.657 312.469 165.344 313.023 165.141C313.577 164.939 314.167 164.852 314.756 164.886C315.378 164.853 315.999 164.963 316.572 165.207C317.145 165.451 317.655 165.822 318.063 166.293V164.886L319.541 164.942ZM317.964 169.164C317.995 168.548 317.841 167.938 317.522 167.411C317.203 166.885 316.733 166.466 316.173 166.208C315.613 165.951 314.99 165.868 314.382 165.969C313.774 166.069 313.211 166.35 312.764 166.774C312.318 167.198 312.008 167.747 311.876 168.348C311.744 168.95 311.796 169.577 312.024 170.15C312.252 170.722 312.646 171.213 313.155 171.559C313.665 171.904 314.267 172.09 314.883 172.091C315.285 172.126 315.691 172.077 316.073 171.946C316.456 171.815 316.807 171.606 317.103 171.332C317.4 171.058 317.637 170.724 317.797 170.353C317.957 169.982 318.038 169.582 318.035 169.178L317.964 169.164Z" fill="#263238"/>
<path d="M331.136 168.741V173.892H329.504V168.868C329.504 167.109 328.631 166.251 327.097 166.251C326.708 166.225 326.317 166.286 325.954 166.428C325.59 166.571 325.262 166.792 324.994 167.075C324.725 167.358 324.522 167.697 324.399 168.068C324.276 168.439 324.237 168.832 324.283 169.22V173.836H322.665V164.886H324.227V166.293C324.611 165.816 325.104 165.439 325.665 165.194C326.226 164.949 326.838 164.843 327.449 164.886C327.957 164.852 328.466 164.929 328.94 165.113C329.415 165.298 329.843 165.584 330.194 165.951C330.546 166.319 330.813 166.76 330.975 167.242C331.138 167.724 331.193 168.236 331.136 168.741V168.741Z" fill="#263238"/>
<path d="M347.024 164.942V173.892H345.49V172.485C345.133 172.945 344.67 173.313 344.141 173.558C343.613 173.803 343.033 173.917 342.45 173.892C341.927 173.946 341.398 173.882 340.903 173.704C340.408 173.527 339.959 173.24 339.589 172.866C339.219 172.492 338.937 172.04 338.765 171.543C338.593 171.046 338.535 170.517 338.595 169.994V164.843H340.213V169.811C340.213 171.556 341.099 172.442 342.633 172.442C343.024 172.47 343.415 172.412 343.78 172.27C344.145 172.128 344.474 171.908 344.743 171.624C345.012 171.34 345.215 170.999 345.337 170.628C345.459 170.256 345.497 169.861 345.448 169.473V164.843L347.024 164.942Z" fill="#263238"/>
<path d="M359.379 169.417C359.411 170.021 359.317 170.625 359.102 171.191C358.887 171.756 358.556 172.271 358.131 172.701C357.706 173.132 357.195 173.469 356.632 173.691C356.07 173.913 355.467 174.015 354.862 173.99C354.268 174.014 353.677 173.899 353.135 173.654C352.592 173.41 352.114 173.044 351.738 172.583V177.199H350.12V164.984H351.668V166.391C352.039 165.901 352.524 165.509 353.08 165.246C353.636 164.984 354.248 164.861 354.862 164.886C355.463 164.86 356.064 164.959 356.624 165.178C357.185 165.396 357.694 165.73 358.119 166.156C358.544 166.582 358.876 167.092 359.093 167.654C359.31 168.215 359.407 168.816 359.379 169.417V169.417ZM357.747 169.417C357.719 168.829 357.52 168.261 357.173 167.785C356.827 167.309 356.348 166.945 355.797 166.738C355.246 166.531 354.646 166.491 354.072 166.621C353.497 166.752 352.974 167.048 352.566 167.472C352.158 167.897 351.884 168.432 351.777 169.011C351.67 169.591 351.736 170.188 351.965 170.731C352.194 171.273 352.578 171.736 353.068 172.063C353.558 172.39 354.133 172.566 354.721 172.569C355.132 172.578 355.54 172.501 355.919 172.344C356.299 172.187 356.641 171.953 356.926 171.657C357.21 171.36 357.43 171.008 357.571 170.623C357.712 170.237 357.772 169.827 357.747 169.417V169.417Z" fill="#263238"/>
</g>
<path d="M419.243 239.99H235.121V271.512H419.243V239.99Z" fill="white"/>
<g opacity="0.4">
<path d="M245.196 250.614H246.153V258.818H251.205V259.649H245.196V250.614Z" fill="#263238"/>
<path d="M257.749 255.441V259.663H256.876V258.607C256.62 258.984 256.27 259.286 255.86 259.484C255.449 259.681 254.994 259.767 254.54 259.733C253.007 259.733 252.064 258.931 252.064 257.749C252.064 256.567 252.725 255.835 254.681 255.835H256.834V255.427C256.834 254.259 256.173 253.626 254.906 253.626C254.084 253.615 253.285 253.899 252.655 254.428L252.233 253.738C253.036 253.116 254.031 252.792 255.047 252.824C255.405 252.78 255.768 252.817 256.11 252.932C256.451 253.047 256.763 253.237 257.022 253.488C257.281 253.739 257.481 254.044 257.607 254.382C257.732 254.72 257.781 255.082 257.749 255.441V255.441ZM256.834 257.608V256.496H254.709C253.387 256.496 252.964 257.017 252.964 257.721C252.964 258.424 253.598 258.987 254.681 258.987C255.14 259.015 255.596 258.897 255.983 258.649C256.37 258.401 256.668 258.037 256.834 257.608V257.608Z" fill="#263238"/>
<path d="M259.297 258.931L259.705 258.213C260.415 258.709 261.26 258.974 262.125 258.973C263.42 258.973 263.941 258.537 263.941 257.862C263.941 256.088 259.55 257.482 259.55 254.808C259.55 253.696 260.493 252.866 262.224 252.866C263.069 252.855 263.9 253.074 264.63 253.499L264.222 254.231C263.63 253.84 262.933 253.639 262.224 253.654C261 253.654 260.465 254.132 260.465 254.78C260.465 256.609 264.855 255.23 264.855 257.833C264.855 259.015 263.828 259.775 262.041 259.775C261.059 259.797 260.097 259.501 259.297 258.931V258.931Z" fill="#263238"/>
<path d="M270.189 259.241C269.789 259.558 269.292 259.727 268.782 259.719C268.514 259.748 268.243 259.716 267.989 259.627C267.736 259.537 267.505 259.392 267.315 259.202C267.124 259.012 266.979 258.781 266.889 258.527C266.8 258.273 266.769 258.002 266.797 257.735V253.64H265.573V252.866H266.797V251.374H267.712V252.866H269.767V253.64H267.712V257.693C267.688 257.855 267.701 258.02 267.75 258.176C267.799 258.333 267.883 258.476 267.996 258.595C268.108 258.714 268.246 258.807 268.399 258.865C268.553 258.923 268.717 258.946 268.88 258.931C269.25 258.942 269.61 258.817 269.893 258.579L270.189 259.241Z" fill="#263238"/>
<path d="M282.854 250.614V259.649H282.066L276.268 252.317V259.649H275.311V250.614H276.099L281.911 257.946V250.614H282.854Z" fill="#263238"/>
<path d="M290.791 255.441V259.663H289.89V258.607C289.636 258.986 289.286 259.29 288.875 259.488C288.464 259.686 288.008 259.77 287.554 259.733C286.02 259.733 285.077 258.931 285.077 257.749C285.077 256.567 285.753 255.835 287.709 255.835H289.89V255.427C289.89 254.259 289.229 253.626 287.962 253.626C287.14 253.615 286.341 253.899 285.711 254.428L285.288 253.738C286.09 253.113 287.087 252.789 288.103 252.824C288.46 252.783 288.821 252.821 289.161 252.937C289.501 253.053 289.811 253.244 290.068 253.494C290.326 253.745 290.524 254.049 290.649 254.386C290.774 254.723 290.822 255.083 290.791 255.441V255.441ZM289.876 257.608V256.496H287.737C286.428 256.496 286.006 257.017 286.006 257.721C286.006 258.424 286.639 258.987 287.723 258.987C288.184 259.019 288.643 258.902 289.033 258.653C289.423 258.405 289.723 258.039 289.89 257.608H289.876Z" fill="#263238"/>
<path d="M304.483 255.708V259.649H303.568V255.807C303.568 254.4 302.837 253.64 301.612 253.64C301.295 253.625 300.978 253.68 300.684 253.8C300.39 253.921 300.126 254.104 299.91 254.337C299.694 254.57 299.532 254.848 299.435 255.151C299.338 255.453 299.307 255.773 299.347 256.088V259.649H298.432V255.807C298.432 254.4 297.7 253.64 296.462 253.64C296.145 253.625 295.828 253.68 295.534 253.8C295.24 253.921 294.976 254.104 294.76 254.337C294.544 254.57 294.382 254.848 294.284 255.151C294.187 255.453 294.157 255.773 294.196 256.088V259.649H293.282V252.866H294.112V254.104C294.377 253.689 294.747 253.351 295.184 253.124C295.621 252.897 296.111 252.788 296.603 252.81C297.102 252.769 297.601 252.881 298.034 253.133C298.467 253.385 298.812 253.763 299.023 254.217C299.301 253.763 299.696 253.393 300.167 253.146C300.637 252.898 301.166 252.782 301.697 252.81C302.082 252.772 302.471 252.822 302.834 252.956C303.197 253.09 303.524 253.305 303.793 253.584C304.061 253.863 304.262 254.199 304.382 254.567C304.501 254.935 304.536 255.325 304.483 255.708Z" fill="#263238"/>
<path d="M312.913 256.539H307.284C307.303 256.87 307.388 257.194 307.533 257.492C307.678 257.79 307.881 258.056 308.13 258.276C308.378 258.496 308.667 258.664 308.981 258.772C309.295 258.879 309.626 258.924 309.957 258.903C310.348 258.915 310.737 258.843 311.097 258.69C311.456 258.536 311.778 258.307 312.04 258.016L312.547 258.607C312.059 259.117 311.432 259.471 310.744 259.626C310.056 259.781 309.338 259.73 308.679 259.479C308.02 259.229 307.449 258.789 307.039 258.216C306.628 257.643 306.395 256.962 306.369 256.257C306.346 255.809 306.415 255.361 306.572 254.941C306.729 254.52 306.971 254.137 307.282 253.813C307.593 253.49 307.968 253.234 308.382 253.062C308.796 252.889 309.241 252.803 309.69 252.81C310.138 252.801 310.583 252.885 310.997 253.057C311.411 253.23 311.784 253.486 312.094 253.81C312.403 254.134 312.642 254.519 312.795 254.94C312.948 255.362 313.012 255.81 312.983 256.257C312.927 256.342 312.913 256.44 312.913 256.539ZM307.284 255.863H312.096C312.096 255.225 311.843 254.613 311.392 254.162C310.94 253.71 310.328 253.457 309.69 253.457C309.052 253.457 308.44 253.71 307.988 254.162C307.537 254.613 307.284 255.225 307.284 255.863Z" fill="#263238"/>
</g>
<path d="M419.243 196.928H235.121V228.45H419.243V196.928Z" fill="white"/>
<g opacity="0.4">
<path d="M246.153 208.383V211.929H250.825V212.76H246.153V216.587H245.196V207.553H251.388V208.383H246.153Z" fill="#263238"/>
<path d="M252.838 207.651C252.835 207.517 252.872 207.384 252.946 207.271C253.019 207.158 253.124 207.069 253.248 207.016C253.372 206.963 253.509 206.949 253.641 206.974C253.774 207 253.895 207.065 253.991 207.16C254.086 207.255 254.151 207.377 254.176 207.509C254.202 207.641 254.187 207.778 254.134 207.902C254.082 208.026 253.993 208.132 253.88 208.205C253.766 208.278 253.634 208.316 253.499 208.313C253.324 208.313 253.155 208.243 253.031 208.119C252.907 207.995 252.838 207.827 252.838 207.651V207.651ZM253.035 209.805H253.949V216.587H253.035V209.805Z" fill="#263238"/>
<path d="M259.93 209.748V210.635H259.705C259.382 210.619 259.059 210.675 258.76 210.799C258.461 210.922 258.193 211.111 257.975 211.35C257.757 211.589 257.595 211.874 257.5 212.183C257.405 212.493 257.379 212.819 257.425 213.14V216.601H256.511V209.819H257.383V211.085C257.626 210.634 257.999 210.266 258.453 210.028C258.906 209.79 259.421 209.692 259.93 209.748Z" fill="#263238"/>
<path d="M260.69 215.813L261.098 215.082C261.802 215.592 262.65 215.863 263.519 215.856C264.813 215.856 265.334 215.405 265.334 214.744C265.334 212.971 260.943 214.364 260.943 211.676C260.943 210.579 261.886 209.748 263.617 209.748C264.463 209.73 265.296 209.949 266.023 210.382L265.615 211.113C265.023 210.722 264.326 210.521 263.617 210.536C262.393 210.536 261.858 211.015 261.858 211.662C261.858 213.491 266.249 212.112 266.249 214.716C266.249 215.884 265.221 216.644 263.434 216.644C262.454 216.669 261.492 216.378 260.69 215.813V215.813Z" fill="#263238"/>
<path d="M271.596 216.179C271.192 216.486 270.697 216.65 270.189 216.644C269.922 216.675 269.651 216.646 269.397 216.558C269.144 216.47 268.913 216.326 268.722 216.137C268.531 215.947 268.386 215.718 268.296 215.464C268.207 215.211 268.175 214.941 268.205 214.674V210.578H266.98V209.805H268.205V208.271H269.119V209.762H271.174V210.536H269.119V214.575C269.096 214.738 269.109 214.904 269.158 215.061C269.207 215.217 269.291 215.361 269.403 215.482C269.515 215.602 269.653 215.695 269.806 215.755C269.959 215.815 270.123 215.84 270.287 215.827C270.656 215.832 271.014 215.708 271.301 215.476L271.596 216.179Z" fill="#263238"/>
<path d="M284.261 207.553V216.587H283.473L277.675 209.256V216.587H276.718V207.553H277.506L283.318 214.885V207.553H284.261Z" fill="#263238"/>
<path d="M292.184 212.38V216.601H291.297V215.546C291.045 215.922 290.697 216.223 290.288 216.419C289.88 216.614 289.426 216.697 288.975 216.658C287.427 216.658 286.485 215.87 286.485 214.688C286.485 213.505 287.16 212.774 289.116 212.774H291.297V212.352C291.297 211.198 290.636 210.564 289.369 210.564C288.547 210.553 287.748 210.838 287.118 211.366L286.696 210.677C287.498 210.052 288.494 209.729 289.51 209.762C289.866 209.721 290.227 209.759 290.567 209.876C290.906 209.992 291.215 210.182 291.472 210.433C291.728 210.684 291.925 210.989 292.048 211.326C292.171 211.663 292.218 212.023 292.184 212.38V212.38ZM291.269 214.547V213.435H289.13C287.821 213.435 287.399 213.956 287.399 214.645C287.399 215.335 288.033 215.926 289.116 215.926C289.579 215.958 290.04 215.842 290.433 215.594C290.825 215.346 291.128 214.979 291.297 214.547H291.269Z" fill="#263238"/>
<path d="M305.876 212.647V216.587H304.962V212.746C304.962 211.338 304.23 210.578 303.006 210.578C302.688 210.564 302.371 210.619 302.077 210.739C301.783 210.86 301.519 211.043 301.303 211.276C301.088 211.509 300.925 211.787 300.828 212.089C300.731 212.392 300.701 212.712 300.74 213.027V216.587H299.825V212.746C299.825 211.338 299.093 210.578 297.855 210.578C297.538 210.564 297.221 210.619 296.927 210.739C296.633 210.86 296.369 211.043 296.153 211.276C295.937 211.509 295.775 211.787 295.677 212.089C295.58 212.392 295.55 212.712 295.589 213.027V216.587H294.675V209.805H295.519V211.085C295.785 210.67 296.154 210.332 296.592 210.105C297.029 209.878 297.518 209.769 298.01 209.79C298.509 209.749 299.008 209.862 299.441 210.114C299.874 210.366 300.219 210.744 300.43 211.198C300.706 210.742 301.1 210.37 301.572 210.122C302.043 209.874 302.573 209.76 303.104 209.79C303.484 209.756 303.867 209.807 304.225 209.94C304.582 210.073 304.906 210.284 305.171 210.558C305.437 210.831 305.638 211.161 305.76 211.523C305.882 211.884 305.922 212.268 305.876 212.647V212.647Z" fill="#263238"/>
<path d="M314.306 213.477H308.677C308.696 213.808 308.781 214.132 308.927 214.43C309.072 214.728 309.274 214.995 309.523 215.215C309.771 215.434 310.06 215.603 310.374 215.71C310.688 215.818 311.02 215.862 311.351 215.842C311.743 215.854 312.133 215.78 312.493 215.624C312.853 215.469 313.174 215.235 313.433 214.941L313.94 215.546C313.452 216.055 312.825 216.41 312.137 216.565C311.45 216.72 310.731 216.669 310.072 216.418C309.413 216.167 308.843 215.728 308.432 215.155C308.021 214.582 307.788 213.901 307.762 213.196C307.739 212.748 307.808 212.3 307.965 211.879C308.122 211.459 308.364 211.075 308.675 210.752C308.986 210.429 309.361 210.173 309.775 210C310.189 209.828 310.634 209.742 311.083 209.748C311.531 209.739 311.976 209.824 312.39 209.996C312.804 210.168 313.177 210.425 313.487 210.749C313.796 211.073 314.035 211.458 314.188 211.879C314.341 212.3 314.405 212.749 314.376 213.196C314.32 213.266 314.306 213.365 314.306 213.477ZM308.677 212.788H313.49C313.49 212.15 313.236 211.538 312.785 211.086C312.333 210.635 311.721 210.381 311.083 210.381C310.445 210.381 309.833 210.635 309.382 211.086C308.93 211.538 308.677 212.15 308.677 212.788V212.788Z" fill="#263238"/>
</g>
<path d="M165.842 464.781H164.506C164.506 462.797 166.152 416.302 174.244 408.492C182.56 400.4 192.341 408.379 192.425 408.492L191.581 409.505C191.215 409.209 182.617 402.23 175.158 409.505C167.461 416.837 165.857 464.303 165.842 464.781Z" fill="#FFD700"/>
<path d="M165.167 474.111L163.844 473.984C163.844 473.422 169.079 417.526 148.829 394.279L149.828 393.406C170.458 417.09 165.223 473.548 165.167 474.111Z" fill="#FFD700"/>
<path d="M165.814 468.144C165.646 465.499 161.747 403.412 177.311 389.058L178.212 390.043C163.112 403.918 167.095 467.441 167.137 468.046L165.814 468.144Z" fill="#FFD700"/>
<path d="M163.844 468.102C163.844 467.68 163.366 425.885 152.291 419.595C151.349 418.974 150.272 418.588 149.151 418.471C148.029 418.353 146.896 418.507 145.846 418.919C139.358 421.607 135.911 433.991 135.868 434.117L134.588 433.766C134.729 433.231 138.247 420.636 145.339 417.695C146.575 417.199 147.912 417.007 149.237 417.137C150.562 417.267 151.837 417.714 152.952 418.441C164.675 425.153 165.167 466.287 165.181 468.088L163.844 468.102Z" fill="#FFD700"/>
<path d="M168.404 468.13C168.319 466.723 166.617 435.145 175.581 423.422C177.973 420.312 180.619 418.835 183.489 419.046C189.864 419.482 194.747 428.123 195.015 428.488L193.861 429.15C193.861 429.065 189.048 420.706 183.391 420.369C181.013 420.186 178.733 421.495 176.636 424.239C167.967 435.496 169.712 467.736 169.727 468.06L168.404 468.13Z" fill="#FFD700"/>
<path d="M166.616 472.507L165.294 472.408C165.294 471.648 170.923 396.249 161.635 383.668L162.704 382.88C172.302 395.855 166.856 469.383 166.616 472.507Z" fill="#FFD700"/>
<path d="M142.764 425.196C142.764 425.196 148.505 427.32 146.803 432.316C145.1 437.312 126.918 445.544 126.918 445.544C126.918 445.544 119.305 438.578 126.299 427.25C133.293 415.922 142.609 421.621 142.764 425.196Z" fill="#FFD700"/>
<path opacity="0.2" d="M142.764 425.196C142.764 425.196 148.505 427.32 146.803 432.316C145.1 437.312 126.918 445.544 126.918 445.544C126.918 445.544 119.305 438.578 126.299 427.25C133.293 415.922 142.609 421.621 142.764 425.196Z" fill="black"/>
<path d="M167.742 415.683C167.742 415.683 161.621 415.43 161.269 420.693C160.917 425.956 174.497 440.563 174.497 440.563C174.497 440.563 184.207 437.045 182.124 423.887C180.042 410.729 169.262 412.432 167.742 415.683Z" fill="#FFD700"/>
<path opacity="0.2" d="M167.742 415.683C167.742 415.683 161.621 415.43 161.269 420.693C160.917 425.956 174.497 440.563 174.497 440.563C174.497 440.563 184.207 437.045 182.124 423.887C180.042 410.729 169.262 412.432 167.742 415.683Z" fill="black"/>
<path d="M172.921 390.437C172.921 390.437 168.84 390.001 169.164 387.524C169.487 385.047 185.023 378.644 194.184 388.931C194.184 388.931 188.316 399.007 179.844 399.148C171.373 399.288 172.921 390.437 172.921 390.437Z" fill="#FFD700"/>
<path opacity="0.2" d="M172.921 390.437C172.921 390.437 168.84 390.001 169.164 387.524C169.487 385.047 185.023 378.644 194.184 388.931C194.184 388.931 188.316 399.007 179.844 399.148C171.373 399.288 172.921 390.437 172.921 390.437Z" fill="black"/>
<path d="M165.322 384.4C165.322 384.4 169.009 386.187 170.05 383.907C171.092 381.628 161.283 367.992 148.041 371.918C148.041 371.918 147.689 383.57 154.81 388.171C161.93 392.773 165.322 384.4 165.322 384.4Z" fill="#FFD700"/>
<path opacity="0.2" d="M165.322 384.4C165.322 384.4 169.009 386.187 170.05 383.907C171.092 381.628 161.283 367.992 148.041 371.918C148.041 371.918 147.689 383.57 154.81 388.171C161.93 392.773 165.322 384.4 165.322 384.4Z" fill="black"/>
<path d="M184.629 423.197C184.629 423.197 181.815 420.918 184.854 419.806C187.894 418.694 202.796 419.018 202.951 433.78C202.951 433.78 185.586 436.664 183.447 431.036C181.308 425.407 184.629 423.197 184.629 423.197Z" fill="#FFD700"/>
<path opacity="0.2" d="M184.629 423.197C184.629 423.197 181.815 420.918 184.854 419.806C187.894 418.694 202.796 419.018 202.951 433.78C202.951 433.78 185.586 436.664 183.447 431.036C181.308 425.407 184.629 423.197 184.629 423.197Z" fill="black"/>
<path d="M149.167 390.071C149.167 390.071 151.981 387.791 148.942 386.694C145.902 385.596 130.999 385.892 130.845 400.654C130.845 400.654 148.21 403.552 150.349 397.923C152.488 392.295 149.167 390.071 149.167 390.071Z" fill="#FFD700"/>
<path opacity="0.2" d="M149.167 390.071C149.167 390.071 151.981 387.791 148.942 386.694C145.902 385.596 130.999 385.892 130.845 400.654C130.845 400.654 148.21 403.552 150.349 397.923C152.488 392.295 149.167 390.071 149.167 390.071Z" fill="black"/>
<path d="M158.398 401.962C158.398 401.962 158.652 399.148 156.414 400.288C154.177 401.427 146.423 409.758 154.472 417.709C154.472 417.709 165.322 409.674 163.366 405.494C161.41 401.315 158.398 401.962 158.398 401.962Z" fill="#FFD700"/>
<path opacity="0.2" d="M158.398 401.962C158.398 401.962 158.652 399.148 156.414 400.288C154.177 401.427 146.423 409.758 154.472 417.709C154.472 417.709 165.322 409.674 163.366 405.494C161.41 401.315 158.398 401.962 158.398 401.962Z" fill="black"/>
<path d="M187.162 405.903C187.162 405.903 185.473 403.693 187.95 403.426C190.427 403.158 201.46 406.1 198.884 417.132C198.884 417.132 185.431 416.119 184.812 411.503C184.193 406.888 187.162 405.903 187.162 405.903Z" fill="#FFD700"/>
<path opacity="0.2" d="M187.162 405.903C187.162 405.903 185.473 403.693 187.95 403.426C190.427 403.158 201.46 406.1 198.884 417.132C198.884 417.132 185.431 416.119 184.812 411.503C184.193 406.888 187.162 405.903 187.162 405.903Z" fill="black"/>
<path d="M143.763 509.025H187.261L193.044 466.723H137.979L143.763 509.025Z" fill="#263238"/>
<path opacity="0.2" d="M143.763 509.025H187.261L193.044 466.723H137.979L143.763 509.025Z" fill="white"/>
<path d="M198.504 463.29V467.314C198.504 468.606 197.991 469.844 197.078 470.757C196.165 471.67 194.927 472.183 193.635 472.183H136.854C135.562 472.183 134.324 471.67 133.411 470.757C132.497 469.844 131.984 468.606 131.984 467.314V463.29H198.504Z" fill="#263238"/>
<path d="M560.952 62.3545H520.522C517.223 62.3545 514.058 63.6652 511.725 65.9981C509.392 68.3311 508.082 71.4952 508.082 74.7945V109.975C508.08 111.61 508.4 113.229 509.025 114.74C509.649 116.251 510.565 117.624 511.72 118.781C512.876 119.937 514.248 120.855 515.758 121.481C517.268 122.107 518.887 122.429 520.522 122.429H532.328L529.514 133.532L540.772 122.429H561.022C564.325 122.429 567.493 121.117 569.828 118.782C572.164 116.446 573.476 113.278 573.476 109.975V74.7945C573.476 73.1537 573.151 71.5292 572.521 70.0143C571.891 68.4995 570.967 67.1244 569.803 65.9681C568.638 64.8119 567.257 63.8973 565.738 63.2771C564.219 62.657 562.592 62.3434 560.952 62.3545Z" fill="#FFD700"/>
<path opacity="0.7" d="M560.952 62.3545H520.522C517.223 62.3545 514.058 63.6652 511.725 65.9981C509.392 68.3311 508.082 71.4952 508.082 74.7945V109.975C508.08 111.61 508.4 113.229 509.025 114.74C509.649 116.251 510.565 117.624 511.72 118.781C512.876 119.937 514.248 120.855 515.758 121.481C517.268 122.107 518.887 122.429 520.522 122.429H532.328L529.514 133.532L540.772 122.429H561.022C564.325 122.429 567.493 121.117 569.828 118.782C572.164 116.446 573.476 113.278 573.476 109.975V74.7945C573.476 73.1537 573.151 71.5292 572.521 70.0143C571.891 68.4995 570.967 67.1244 569.803 65.9681C568.638 64.8119 567.257 63.8973 565.738 63.2771C564.219 62.657 562.592 62.3434 560.952 62.3545Z" fill="white"/>
<path d="M540.744 107.935C549.409 107.935 556.434 100.91 556.434 92.2442C556.434 83.5785 549.409 76.5536 540.744 76.5536C532.078 76.5536 525.053 83.5785 525.053 92.2442C525.053 100.91 532.078 107.935 540.744 107.935Z" fill="white"/>
<path d="M540.744 72.177C536.775 72.177 532.895 73.3539 529.595 75.5589C526.295 77.7639 523.723 80.898 522.204 84.5648C520.685 88.2316 520.288 92.2664 521.062 96.1591C521.836 100.052 523.748 103.627 526.554 106.434C529.361 109.24 532.936 111.151 536.829 111.926C540.721 112.7 544.756 112.303 548.423 110.784C552.09 109.265 555.224 106.693 557.429 103.393C559.634 100.093 560.811 96.2131 560.811 92.2442C560.813 89.6084 560.295 86.9981 559.287 84.5626C558.279 82.1271 556.801 79.9142 554.937 78.0504C553.074 76.1866 550.861 74.7086 548.425 73.7008C545.99 72.6929 543.379 72.1752 540.744 72.177V72.177ZM552.128 86.2493L540.04 100.491C539.868 100.696 539.653 100.861 539.41 100.973C539.166 101.085 538.901 101.141 538.633 101.138C538.365 101.139 538.1 101.082 537.857 100.971C537.614 100.859 537.399 100.695 537.226 100.491L529.359 91.2169C529.193 91.0335 529.065 90.8186 528.984 90.5848C528.903 90.3511 528.869 90.1034 528.886 89.8564C528.902 89.6095 528.968 89.3684 529.08 89.1475C529.191 88.9266 529.346 88.7304 529.535 88.5707C529.724 88.411 529.944 88.2909 530.18 88.2178C530.416 88.1446 530.665 88.1198 530.911 88.1448C531.157 88.1698 531.396 88.2441 531.613 88.3633C531.83 88.4825 532.021 88.6442 532.174 88.8387L538.633 96.4518L549.314 83.8711C549.635 83.5171 550.08 83.3015 550.557 83.2698C551.034 83.2381 551.504 83.3927 551.869 83.7011C552.234 84.0095 552.465 84.4476 552.514 84.9229C552.562 85.3983 552.424 85.8739 552.128 86.2493V86.2493Z" fill="#FFD700"/>
<path d="M553.944 279.42C553.944 279.42 529.444 276.324 492.321 286.457C492.321 286.457 486.354 220.12 487.058 211.001C487.761 201.882 544.374 204.556 544.374 204.556C544.374 204.556 545.782 231.11 549.469 247.124C553.155 263.139 555.857 276.339 553.944 279.42Z" fill="#FFD700"/>
<path opacity="0.2" d="M553.944 279.42C553.944 279.42 529.444 276.324 492.321 286.457C492.321 286.457 486.354 220.12 487.058 211.001C487.761 201.882 544.374 204.556 544.374 204.556C544.374 204.556 545.782 231.11 549.469 247.124C553.155 263.139 555.857 276.339 553.944 279.42Z" fill="black"/>
<path d="M474.421 499.033L484.412 501.862L486.79 486.312L488.071 477.995L478.08 475.167L476.377 486.312L474.421 499.033Z" fill="#E4897B"/>
<path d="M531.864 499.85L542.165 501.215L542.263 486.312L542.334 477.052L532.019 475.701L531.948 486.312L531.864 499.85Z" fill="#E4897B"/>
<path opacity="0.2" d="M532.019 475.701L531.948 486.312H542.263L542.334 477.052L532.019 475.701Z" fill="black"/>
<path opacity="0.2" d="M476.377 486.312H486.79L488.071 477.995L478.08 475.167L476.377 486.312Z" fill="black"/>
<path d="M430.065 216.447L420.144 213.52L421.959 224.848C421.959 224.848 430.965 226.917 431.81 222.23L430.065 216.447Z" fill="#E4897B"/>
<path d="M410.237 216.151L415.106 225.354L421.959 224.848L420.144 213.52L410.237 216.151Z" fill="#E4897B"/>
<path d="M443.757 219.346L427.461 215.701L425.984 223.609L440.774 227.212L443.757 219.346Z" fill="#E4897B"/>
<path d="M493.053 212.197L492.096 213.337C490.041 215.743 485.059 221.555 479.867 226.565C475.645 230.646 471.423 234.206 468.609 234.924C460.63 236.978 431.627 228.436 431.627 228.436L434.624 216.672C434.624 216.672 461.643 220.26 463.74 220.26C465.33 220.26 481.767 196.45 485.749 194.494L493.053 212.197Z" fill="#FFD700"/>
<path opacity="0.2" d="M492.096 213.337C490.041 215.743 485.059 221.555 479.867 226.565C480.908 218.318 483.934 210.747 487.916 205.963C488.287 205.501 488.713 205.085 489.183 204.724L492.096 213.337Z" fill="black"/>
<path d="M474.547 497.471L485.89 497.176C486.094 497.169 486.295 497.233 486.459 497.355C486.622 497.478 486.739 497.653 486.79 497.851L489.183 506.984C489.24 507.203 489.247 507.432 489.204 507.653C489.16 507.875 489.068 508.084 488.933 508.266C488.797 508.447 488.623 508.595 488.423 508.7C488.223 508.804 488.001 508.862 487.775 508.87C483.68 508.87 477.756 508.87 472.62 508.968C466.597 509.137 462.769 508.842 455.733 508.968C451.511 509.081 450.104 504.831 451.905 504.395C459.969 502.397 465.246 502.791 472.113 498.287C472.838 497.804 473.678 497.523 474.547 497.471V497.471Z" fill="#263238"/>
<path d="M473.562 498.935C471.902 499.301 468.947 499.793 467.765 498.822C467.592 498.68 467.456 498.498 467.368 498.292C467.28 498.087 467.242 497.863 467.258 497.64C467.257 497.506 467.292 497.374 467.359 497.258C467.426 497.142 467.522 497.046 467.638 496.979C468.89 496.233 473.126 498.245 473.619 498.47C473.662 498.494 473.698 498.528 473.722 498.57C473.747 498.612 473.76 498.661 473.759 498.71C473.757 498.764 473.736 498.816 473.7 498.857C473.665 498.898 473.616 498.925 473.562 498.935ZM467.933 497.373H467.849C467.802 497.4 467.763 497.439 467.736 497.486C467.709 497.533 467.694 497.586 467.694 497.64C467.682 497.786 467.706 497.932 467.762 498.066C467.818 498.201 467.906 498.32 468.018 498.414C468.679 498.963 470.396 499.019 472.676 498.569C471.029 497.879 468.736 497.077 467.962 497.373H467.933Z" fill="#FFD700"/>
<path d="M473.562 498.935H473.393C472.113 498.4 469.552 496.233 469.692 495.065C469.692 494.784 469.918 494.432 470.593 494.347C470.841 494.315 471.093 494.332 471.335 494.397C471.576 494.462 471.802 494.574 472 494.727C473.408 495.783 473.731 498.555 473.759 498.668C473.763 498.71 473.756 498.753 473.739 498.793C473.722 498.832 473.695 498.867 473.661 498.893L473.562 498.935ZM470.41 494.896C470.199 494.966 470.185 495.079 470.185 495.121C470.101 495.825 471.846 497.542 473.154 498.273C473.003 497.091 472.481 495.988 471.663 495.121C471.524 495.005 471.361 494.919 471.187 494.87C471.012 494.822 470.829 494.811 470.649 494.84C470.567 494.847 470.487 494.866 470.41 494.896V494.896Z" fill="#FFD700"/>
<path d="M532.272 497.471L543.614 497.176C543.821 497.169 544.023 497.232 544.189 497.354C544.356 497.477 544.475 497.652 544.529 497.851L546.907 506.984C546.967 507.203 546.977 507.433 546.934 507.656C546.892 507.879 546.8 508.089 546.664 508.271C546.528 508.453 546.353 508.601 546.151 508.705C545.95 508.809 545.727 508.865 545.5 508.87C541.405 508.87 535.481 508.87 530.33 508.968C524.321 509.137 520.479 508.842 513.443 508.968C509.222 509.081 507.814 504.831 509.616 504.395C517.679 502.397 522.942 502.791 529.809 498.288C530.542 497.8 531.393 497.518 532.272 497.471V497.471Z" fill="#263238"/>
<path d="M531.301 498.935C529.641 499.301 526.671 499.793 525.503 498.822C525.331 498.68 525.195 498.498 525.107 498.292C525.019 498.087 524.981 497.863 524.997 497.64C524.996 497.506 525.031 497.374 525.098 497.258C525.165 497.142 525.261 497.046 525.377 496.979C526.615 496.233 530.865 498.245 531.343 498.47C531.39 498.489 531.43 498.522 531.455 498.566C531.481 498.609 531.491 498.66 531.484 498.71C531.48 498.761 531.461 498.811 531.428 498.851C531.395 498.891 531.351 498.92 531.301 498.935V498.935ZM525.672 497.373H525.588C525.541 497.399 525.504 497.439 525.479 497.486C525.454 497.533 525.443 497.587 525.447 497.64C525.433 497.786 525.455 497.933 525.512 498.068C525.568 498.203 525.657 498.322 525.771 498.414C526.432 498.963 528.135 499.019 530.429 498.569C528.754 497.879 526.46 497.077 525.686 497.373H525.672Z" fill="#FFD700"/>
<path d="M531.301 498.935H531.118C529.852 498.4 527.276 496.233 527.431 495.065C527.431 494.783 527.642 494.432 528.318 494.347C528.566 494.313 528.818 494.329 529.06 494.395C529.302 494.46 529.528 494.573 529.725 494.727C530.71 495.824 531.325 497.202 531.484 498.667C531.491 498.71 531.486 498.755 531.468 498.795C531.451 498.835 531.422 498.869 531.386 498.893L531.301 498.935ZM528.135 494.896C527.938 494.966 527.924 495.079 527.924 495.121C527.825 495.825 529.584 497.542 530.893 498.273C530.732 497.094 530.211 495.993 529.401 495.121C529.262 495.005 529.1 494.92 528.925 494.872C528.75 494.823 528.567 494.812 528.388 494.84L528.135 494.896Z" fill="#FFD700"/>
<path d="M553.113 273.369C558.573 297.025 549.201 483.132 549.201 483.132H531.104L523.364 328.04L494.868 483.132L475.518 481.724C488.184 361.575 499.343 289.848 499.343 289.848V280.785L553.113 273.369Z" fill="#263238"/>
<path opacity="0.4" d="M475.518 481.724L494.868 483.132L517.299 361.04L523.364 328.04L531.104 483.132H549.201C549.201 483.132 558.573 297.025 553.113 273.369L499.315 280.785V289.848C499.315 289.848 488.169 361.575 475.518 481.724Z" fill="white"/>
<path d="M543.361 185.755C542.806 197.065 543.093 208.401 544.22 219.669C544.979 227.55 546.021 234.994 547.132 241.706C549.736 257.453 552.691 269.26 553.113 273.383L499.315 280.799C479.698 225.917 487.086 194.029 487.086 194.029C491.108 192.368 495.23 190.959 499.427 189.808C500.314 189.568 501.214 189.343 502.143 189.132C509.699 187.645 517.334 186.593 525.011 185.98C526.418 185.853 527.952 185.755 529.387 185.685C536.733 185.319 543.361 185.755 543.361 185.755Z" fill="#263238"/>
<path d="M514.569 161.058C514.963 168.587 515.765 182.715 522.027 186.304C522.027 186.304 518.129 193.72 509.7 194.48C503.325 195.043 503.747 188.752 503.747 188.752C507.434 186.008 506.562 181.35 503.747 176.087L514.569 161.058Z" fill="#E4897B"/>
<path opacity="0.2" d="M510.15 167.193L503.79 176.087C504.459 177.304 505.024 178.575 505.478 179.887C508.434 178.705 511.825 174.258 511.333 171.035C511.178 169.693 510.778 168.39 510.15 167.193V167.193Z" fill="black"/>
<path d="M487.128 145.902C485.904 149.814 486.579 157.835 492.025 155.232C497.471 152.629 489.239 139.19 487.128 145.902Z" fill="#263238"/>
<path d="M515.273 151.193C515.878 161.227 516.68 167.067 512.303 172.752C505.647 181.294 492.757 178.114 489.155 168.432C485.918 159.707 485.482 144.762 494.783 139.696C496.845 138.574 499.158 137.994 501.505 138.009C503.853 138.025 506.158 138.635 508.205 139.784C510.252 140.933 511.974 142.582 513.21 144.577C514.446 146.572 515.156 148.849 515.273 151.193V151.193Z" fill="#E4897B"/>
<path d="M508.237 145.733V134.475C508.237 134.475 520.17 133.589 519.635 139.696C526.249 142.975 523.125 153.262 514.245 158.3C509.376 154.402 509.939 145.03 509.939 145.03C509.419 145.297 508.828 145.522 508.237 145.733Z" fill="#263238"/>
<path d="M520.128 159.018C519.898 160.245 519.424 161.414 518.736 162.456C518.047 163.497 517.157 164.39 516.117 165.083C513.303 166.926 510.868 164.661 510.77 161.494C510.685 158.68 512.022 154.233 515.259 153.67C515.967 153.56 516.691 153.627 517.367 153.865C518.043 154.103 518.649 154.505 519.131 155.034C519.614 155.564 519.957 156.205 520.131 156.901C520.305 157.596 520.304 158.323 520.128 159.018Z" fill="#E4897B"/>
<path d="M500.455 155.668C500.553 156.484 500.201 157.188 499.667 157.244C499.132 157.301 498.625 156.696 498.527 155.837C498.428 154.979 498.78 154.317 499.301 154.261C499.821 154.205 500.356 154.796 500.455 155.668Z" fill="#263238"/>
<path d="M491.251 156.696C491.35 157.512 490.998 158.215 490.463 158.272C489.929 158.328 489.422 157.723 489.323 156.864C489.225 156.006 489.577 155.345 490.111 155.288C490.646 155.232 491.125 155.879 491.251 156.696Z" fill="#263238"/>
<path d="M494.221 156.766C493.509 159.282 492.453 161.688 491.082 163.915C491.689 164.227 492.355 164.407 493.037 164.443C493.718 164.479 494.4 164.371 495.037 164.126L494.221 156.766Z" fill="#DE5753"/>
<path d="M499.779 166.743C499.432 166.832 499.079 166.898 498.724 166.94C498.66 166.94 498.599 166.915 498.555 166.87C498.51 166.825 498.484 166.764 498.484 166.701C498.484 166.638 498.51 166.577 498.555 166.532C498.599 166.487 498.66 166.462 498.724 166.462C499.734 166.37 500.709 166.042 501.57 165.504C502.43 164.966 503.152 164.234 503.677 163.366C503.689 163.337 503.707 163.312 503.729 163.29C503.752 163.269 503.778 163.253 503.807 163.242C503.837 163.232 503.867 163.227 503.898 163.229C503.929 163.231 503.959 163.239 503.987 163.253C504.016 163.267 504.042 163.286 504.063 163.31C504.084 163.333 504.101 163.361 504.111 163.391C504.122 163.421 504.126 163.453 504.124 163.485C504.122 163.517 504.114 163.548 504.099 163.577C503.639 164.376 503.017 165.071 502.273 165.616C501.529 166.161 500.68 166.545 499.779 166.743V166.743Z" fill="#263238"/>
<path d="M502.931 152.389C502.846 152.409 502.757 152.407 502.674 152.382C502.59 152.357 502.514 152.311 502.453 152.249C502.045 151.802 501.539 151.457 500.975 151.239C500.411 151.022 499.804 150.939 499.202 150.996C499.14 151.011 499.076 151.012 499.013 151C498.95 150.989 498.891 150.964 498.838 150.929C498.785 150.893 498.74 150.847 498.706 150.793C498.672 150.739 498.649 150.679 498.639 150.616C498.627 150.554 498.627 150.491 498.64 150.429C498.652 150.367 498.677 150.308 498.712 150.256C498.747 150.203 498.793 150.159 498.845 150.124C498.898 150.089 498.957 150.065 499.019 150.053C499.779 149.963 500.549 150.055 501.266 150.322C501.983 150.588 502.627 151.022 503.142 151.587C503.188 151.631 503.225 151.683 503.25 151.741C503.275 151.799 503.288 151.862 503.288 151.925C503.288 151.988 503.275 152.051 503.25 152.109C503.225 152.167 503.188 152.219 503.142 152.263C503.082 152.32 503.01 152.363 502.931 152.389V152.389Z" fill="#263238"/>
<path d="M486.903 153.98C486.812 154.014 486.712 154.014 486.621 153.98C486.502 153.938 486.405 153.851 486.349 153.738C486.294 153.624 486.285 153.494 486.326 153.374C486.558 152.65 486.963 151.993 487.504 151.459C488.046 150.924 488.708 150.529 489.436 150.307C489.559 150.275 489.69 150.293 489.799 150.358C489.909 150.423 489.988 150.528 490.02 150.651C490.052 150.775 490.033 150.905 489.968 151.015C489.904 151.124 489.798 151.204 489.675 151.235C489.1 151.413 488.577 151.729 488.152 152.156C487.728 152.583 487.415 153.108 487.241 153.684C487.214 153.758 487.169 153.824 487.11 153.875C487.051 153.927 486.98 153.963 486.903 153.98V153.98Z" fill="#263238"/>
<path d="M513.528 149.899C513.528 149.899 506.492 147.323 503.283 143.242C503.283 143.242 496.894 144.917 495.586 147.464C494.988 146.953 494.602 146.238 494.501 145.459C494.399 144.679 494.59 143.889 495.037 143.242C495.037 143.242 490.252 144.256 489.309 147.464C488.532 147.094 487.893 146.484 487.488 145.724C487.083 144.964 486.932 144.094 487.058 143.242C487.058 143.242 484.933 144.044 484.243 147.464C484.243 147.464 478.966 136.46 496.402 133.307C495.082 132.86 493.7 132.627 492.307 132.618C492.307 132.618 504.479 127.707 514.119 132.196C523.758 136.685 522.084 145.381 513.528 149.899Z" fill="#263238"/>
<path d="M557.265 282.854L540.378 285.106C540.378 285.106 533.412 236.429 530.344 220.711V187.162L539.168 184.84L546.007 187.162C547.882 193.912 549.325 200.774 550.327 207.708C551.157 212.971 551.903 218.6 552.564 224.299C553.479 232.067 554.239 239.976 554.886 247.378C555.9 259.325 556.575 269.893 556.941 276.353C557.152 280.405 557.265 282.854 557.265 282.854Z" fill="#FFD700"/>
<path d="M530.358 220.683C530.358 220.683 531.766 196.999 539.182 184.784C539.182 184.784 538.999 181.294 537.521 180.731C536.044 180.168 530.358 183.546 530.358 183.546C530.358 183.546 526.826 181.125 526.052 182.251C525.278 183.377 523.393 190.863 530.358 220.683Z" fill="#FFD700"/>
<path opacity="0.7" d="M530.358 220.683C530.358 220.683 531.766 196.999 539.182 184.784C539.182 184.784 538.999 181.294 537.521 180.731C536.044 180.168 530.358 183.546 530.358 183.546C530.358 183.546 526.826 181.125 526.052 182.251C525.278 183.377 523.393 190.863 530.358 220.683Z" fill="white"/>
<path d="M491.969 289.341L493.897 290.749C493.897 290.749 491.082 275.058 492.236 235.374C492.236 233.46 492.363 231.617 492.433 229.858C493.841 196.281 499.075 190.174 499.469 189.808L494.6 191.468L485.777 194.508C483.117 223.145 491.969 289.341 491.969 289.341Z" fill="#FFD700"/>
<path d="M492.729 224.074C492.729 224.074 487.86 201.052 489.309 193.115C490.759 185.178 495.951 188.71 495.951 188.71C495.951 188.71 500.722 184.854 502.143 189.104C502.143 189.104 495.586 193.72 492.729 224.074Z" fill="#FFD700"/>
<path opacity="0.7" d="M492.729 224.074C492.729 224.074 487.86 201.052 489.309 193.115C490.759 185.178 495.951 188.71 495.951 188.71C495.951 188.71 500.722 184.854 502.143 189.104C502.143 189.104 495.586 193.72 492.729 224.074Z" fill="white"/>
<path opacity="0.2" d="M552.536 224.243C545.331 220.204 544.374 209.664 544.374 209.664C544.811 209.495 547.484 208.58 550.299 207.651C551.129 212.915 551.875 218.543 552.536 224.243Z" fill="black"/>
<path opacity="0.2" d="M517.299 361.04L523.364 328.04L522.196 310.577C522.196 310.577 513.88 340.86 517.299 361.04Z" fill="black"/>
<path opacity="0.2" d="M556.913 276.296C552.381 275.987 548.469 275.691 548.469 275.691L547.611 257.271C549.023 256.387 550.719 256.075 552.353 256.398C553.467 253.455 554.31 250.417 554.872 247.321C555.857 259.269 556.547 269.851 556.913 276.296Z" fill="black"/>
<path d="M558.461 247.307L549.637 261.478L556.617 265.489L564.906 252.725L558.461 247.307Z" fill="#E4897B"/>
<path d="M545.627 186.937C551.565 187.584 576.811 222.23 577.923 232.672C579.034 243.114 563.091 261.14 563.091 261.14L552.452 254.878C552.452 254.878 563.259 238.259 563.822 233.77C564.385 229.281 544.051 211.141 544.051 211.141C542.513 206.963 541.667 202.561 541.546 198.11C541.264 190.483 545.627 186.937 545.627 186.937Z" fill="#FFD700"/>
<path d="M547.597 257.285C547.597 257.285 556.674 259.227 560.332 264.94C560.332 264.94 556.533 276.831 553.817 278.126C551.101 279.42 544.374 279.42 544.374 279.42C544.374 279.42 543.938 266.192 547.597 257.285Z" fill="#FFD700"/>
</svg>
