<svg width="1664" height="1240" viewBox="0 0 1664 1240" fill="none" xmlns="http://www.w3.org/2000/svg">
<path d="M1663.28 1089.11H0V1089.95H1663.28V1089.11Z" fill="#E6E6E6"/>
<path d="M415.221 1139.45H305.045V1140.28H415.221V1139.45Z" fill="#E6E6E6"/>
<path d="M270.183 1139.45H206.346V1140.28H270.183V1139.45Z" fill="#E6E6E6"/>
<path d="M700.407 1151.69H636.57V1152.52H700.407V1151.69Z" fill="#E6E6E6"/>
<path d="M1033.26 1170.25H889.588V1171.08H1033.26V1170.25Z" fill="#E6E6E6"/>
<path d="M859.982 1170.25H838.925V1171.08H859.982V1170.25Z" fill="#E6E6E6"/>
<path d="M1508.09 1151.69H1196.46V1152.52H1508.09V1151.69Z" fill="#E6E6E6"/>
<path d="M788.394 940.75H146.069C141.037 940.742 136.214 938.737 132.659 935.175C129.104 931.614 127.108 926.788 127.108 921.756V18.8283C127.152 13.8253 129.168 9.04151 132.718 5.51616C136.268 1.99081 141.066 0.0085705 146.069 0H788.394C793.432 0 798.263 2.00122 801.825 5.5634C805.388 9.12559 807.389 13.9569 807.389 18.9946V921.756C807.389 926.793 805.388 931.625 801.825 935.187C798.263 938.749 793.432 940.75 788.394 940.75V940.75ZM146.069 0.665314C141.258 0.674126 136.647 2.5916 133.247 5.99687C129.848 9.40214 127.939 14.0169 127.939 18.8283V921.756C127.939 926.567 129.848 931.182 133.247 934.587C136.647 937.992 141.258 939.91 146.069 939.919H788.394C793.209 939.91 797.823 937.994 801.228 934.589C804.632 931.185 806.548 926.57 806.557 921.756V18.8283C806.548 14.0139 804.632 9.39916 801.228 5.99484C797.823 2.59052 793.209 0.674108 788.394 0.665314H146.069Z" fill="#E6E6E6"/>
<path d="M1507.96 940.75H865.604C860.569 940.742 855.742 938.738 852.182 935.177C848.622 931.617 846.618 926.791 846.609 921.756V18.8283C846.661 13.8222 848.685 9.03851 852.24 5.51408C855.796 1.98964 860.597 0.00847703 865.604 0H1507.96C1512.96 0.0173131 1517.75 2.00342 1521.29 5.52783C1524.83 9.05225 1526.85 13.831 1526.89 18.8283V921.756C1526.89 926.782 1524.9 931.603 1521.35 935.164C1517.8 938.724 1512.99 940.733 1507.96 940.75V940.75ZM865.604 0.665314C860.789 0.674108 856.174 2.59052 852.77 5.99484C849.366 9.39916 847.449 14.0139 847.441 18.8283V921.756C847.449 926.57 849.366 931.185 852.77 934.589C856.174 937.994 860.789 939.91 865.604 939.919H1507.96C1512.78 939.91 1517.39 937.994 1520.8 934.589C1524.2 931.185 1526.12 926.57 1526.12 921.756V18.8283C1526.12 14.0139 1524.2 9.39916 1520.8 5.99484C1517.39 2.59052 1512.78 0.674108 1507.96 0.665314H865.604Z" fill="#E6E6E6"/>
<path d="M889.521 804.96H816.37V1095.14H889.521V804.96Z" fill="#E0E0E0"/>
<path d="M875.616 1095.14H889.521V1055.62H861.046L875.616 1095.14Z" fill="#FAFAFA"/>
<path d="M568.974 804.96H495.823V1095.14H568.974V804.96Z" fill="#E0E0E0"/>
<path d="M889.521 804.96H556.866V1070.89H889.521V804.96Z" fill="#FAFAFA"/>
<path d="M877.446 818.034V888.39H568.841V818.034H877.346M878.644 816.736H567.644V889.655H878.743V816.736H878.644Z" fill="#E0E0E0"/>
<path d="M570.738 1095.14H556.866V1055.62H585.308L570.738 1095.14Z" fill="#FAFAFA"/>
<path d="M715.842 853.196C715.842 854.65 716.273 856.071 717.081 857.28C717.889 858.489 719.037 859.431 720.38 859.988C721.724 860.544 723.202 860.69 724.628 860.406C726.054 860.122 727.364 859.422 728.392 858.394C729.42 857.366 730.12 856.056 730.404 854.63C730.688 853.204 730.542 851.725 729.986 850.382C729.429 849.039 728.487 847.891 727.278 847.083C726.069 846.275 724.648 845.844 723.194 845.844C721.244 845.844 719.374 846.618 717.995 847.997C716.616 849.376 715.842 851.246 715.842 853.196V853.196Z" fill="#E6E6E6"/>
<path d="M877.446 902.728V973.085H568.841V902.728H877.346M878.644 901.464H567.644V974.382H878.743V901.497L878.644 901.464Z" fill="#E0E0E0"/>
<path d="M715.842 938.089C715.842 939.543 716.273 940.965 717.081 942.174C717.889 943.383 719.037 944.325 720.38 944.881C721.724 945.438 723.202 945.583 724.628 945.3C726.054 945.016 727.364 944.316 728.392 943.288C729.42 942.26 730.12 940.95 730.404 939.523C730.688 938.097 730.542 936.619 729.986 935.276C729.429 933.932 728.487 932.784 727.278 931.976C726.069 931.169 724.648 930.738 723.194 930.738C721.244 930.738 719.374 931.512 717.995 932.891C716.616 934.269 715.842 936.139 715.842 938.089Z" fill="#E6E6E6"/>
<path d="M877.446 987.455V1057.85H568.841V987.455H877.346M878.644 986.158H567.644V1059.11H878.743V986.158H878.644Z" fill="#E0E0E0"/>
<path d="M715.842 1022.65C715.848 1024.1 716.285 1025.52 717.097 1026.73C717.909 1027.93 719.059 1028.87 720.403 1029.42C721.747 1029.97 723.224 1030.11 724.648 1029.82C726.072 1029.54 727.379 1028.83 728.404 1027.8C729.428 1026.77 730.125 1025.46 730.406 1024.04C730.687 1022.61 730.54 1021.14 729.982 1019.8C729.425 1018.45 728.483 1017.31 727.274 1016.5C726.066 1015.7 724.646 1015.27 723.194 1015.27C722.225 1015.27 721.267 1015.46 720.372 1015.83C719.478 1016.2 718.666 1016.74 717.983 1017.43C717.3 1018.12 716.759 1018.93 716.392 1019.83C716.024 1020.72 715.837 1021.68 715.842 1022.65V1022.65Z" fill="#E6E6E6"/>
<path d="M524.299 636.437H451.148V1095.17H524.299V636.437Z" fill="#E0E0E0"/>
<path d="M510.394 1095.14H524.299V1055.62H495.857L510.394 1095.14Z" fill="#FAFAFA"/>
<path d="M250.922 636.437H177.771V1095.17H250.922V636.437Z" fill="#E0E0E0"/>
<path d="M524.299 636.437H238.78V1070.92H524.299V636.437Z" fill="#FAFAFA"/>
<path d="M511.99 648.679V747.045H251.089V648.679H511.99M513.521 647.182H249.492V748.475H513.454V647.215L513.521 647.182Z" fill="#E0E0E0"/>
<path d="M511.991 759.054V1019.96H387.71V759.054H511.991ZM513.521 757.524H386.213V1021.49H513.521V757.524Z" fill="#E0E0E0"/>
<path d="M375.369 759.054V1019.96H251.089V759.054H375.369ZM376.866 757.524H249.492V1021.49H376.799V757.524H376.866Z" fill="#E0E0E0"/>
<path d="M252.685 1095.14H238.78V1055.62H267.256L252.685 1095.14Z" fill="#FAFAFA"/>
<path d="M374.171 697.912C374.165 699.374 374.592 700.805 375.4 702.024C376.207 703.242 377.358 704.194 378.707 704.758C380.056 705.322 381.542 705.473 382.976 705.192C384.411 704.911 385.73 704.21 386.766 703.179C387.802 702.147 388.509 700.831 388.797 699.398C389.084 697.965 388.94 696.478 388.382 695.127C387.824 693.775 386.878 692.62 385.662 691.807C384.447 690.994 383.018 690.56 381.556 690.56C379.603 690.56 377.73 691.334 376.346 692.711C374.962 694.089 374.18 695.959 374.171 697.912Z" fill="#E6E6E6"/>
<path d="M400.518 883.301C400.518 884.763 400.952 886.192 401.764 887.407C402.577 888.622 403.733 889.569 405.084 890.127C406.435 890.685 407.922 890.829 409.356 890.541C410.789 890.254 412.105 889.547 413.136 888.511C414.168 887.475 414.868 886.156 415.15 884.721C415.431 883.286 415.28 881.8 414.716 880.452C414.152 879.103 413.2 877.952 411.981 877.144C410.762 876.337 409.331 875.909 407.869 875.916C406.901 875.916 405.942 876.107 405.048 876.479C404.154 876.85 403.342 877.395 402.659 878.081C401.976 878.767 401.435 879.581 401.068 880.477C400.7 881.373 400.513 882.333 400.518 883.301V883.301Z" fill="#E6E6E6"/>
<path d="M347.858 883.301C347.865 884.753 348.301 886.171 349.113 887.376C349.925 888.581 351.075 889.518 352.419 890.069C353.763 890.62 355.24 890.761 356.664 890.474C358.088 890.186 359.395 889.484 360.42 888.454C361.445 887.425 362.142 886.115 362.423 884.69C362.704 883.264 362.556 881.788 361.999 880.446C361.441 879.105 360.499 877.959 359.291 877.152C358.082 876.346 356.662 875.916 355.21 875.916C354.242 875.916 353.283 876.107 352.389 876.479C351.495 876.85 350.683 877.395 350 878.081C349.316 878.767 348.776 879.581 348.408 880.477C348.041 881.373 347.854 882.332 347.858 883.301V883.301Z" fill="#E6E6E6"/>
<path d="M339.542 508.531H308.705C311.546 523.49 313.336 538.629 314.06 553.839C314.06 570.471 290.575 636.437 324.04 636.437C357.505 636.437 334.02 570.638 334.02 553.839C334.799 538.625 336.644 523.486 339.542 508.531V508.531Z" fill="#E0E0E0"/>
<path d="M222.214 575.993V595.953C222.249 606.653 226.515 616.904 234.081 624.47C241.647 632.036 251.899 636.302 262.598 636.337H282.558C293.258 636.302 303.509 632.036 311.075 624.47C318.641 616.904 322.907 606.653 322.942 595.953V575.993H222.214Z" fill="#F5F5F5"/>
<path d="M650.907 762.646C650.907 785.932 676.954 804.96 708.79 804.96H737.531C769.366 804.96 795.413 785.932 795.413 762.646H650.907Z" fill="#E0E0E0"/>
<path d="M1412.49 728.516C1395.06 742.754 1370.97 768.801 1348.95 805.459C1334.25 829.876 1325.4 855.358 1321.51 889.222C1321.51 850.967 1321.74 809.883 1321.87 771.096C1326.3 761.116 1336.41 738.096 1343.66 719.933C1367.85 659.29 1376.93 644.354 1398.65 592.061C1427.69 522.203 1457.43 439.505 1448.92 446.125C1431.55 459.597 1365.02 584.177 1357.83 602.007C1338.25 649.591 1326.14 699.918 1321.94 751.203C1321.94 714.611 1322.21 681.345 1322.34 655.531C1322.81 571.336 1324.24 544.158 1324.93 535.775C1327.63 531.517 1330.79 526.561 1332.65 523.899C1348.29 501.279 1354.31 482.051 1369.01 448.32C1389.9 400.584 1407.87 315.79 1402.61 320.048C1380.72 337.878 1363.49 376.134 1340.8 424.934C1318.12 473.735 1324.6 501.778 1320.11 543.426C1319.18 551.61 1318.45 582.48 1317.92 625.226C1312.06 579.653 1301.02 549.647 1280.89 522.369C1256.14 488.804 1232.19 466.15 1214.63 454.308C1197.06 442.465 1244.96 524.897 1267.85 560.758C1288.24 592.826 1307.04 621.068 1317.75 648.911C1317.18 706.893 1316.92 780.277 1316.92 848.505C1311.66 817.435 1303.08 783.936 1291.64 758.022C1277.86 726.886 1256.71 679.117 1239.84 662.916C1235.82 659.024 1257.47 751.935 1271.38 776.618C1285.28 801.301 1295.49 824.62 1304.24 838.625C1306.27 841.952 1313.06 854.493 1316.92 861.745C1316.92 945.141 1317.38 1018.72 1318.12 1043.77H1321.71C1321.47 1037.32 1321.41 994.873 1321.51 938.721C1330.19 908.25 1350.02 873.454 1366.38 841.719C1384.21 807.355 1429.92 714.378 1412.49 728.516Z" fill="#E0E0E0"/>
<path d="M1372.01 1095.14H1267.75L1259.87 992.944H1379.89L1372.01 1095.14Z" fill="#F0F0F0"/>
<path d="M1387.64 1004.85H1252.08L1248.22 970.357H1391.53L1387.64 1004.85Z" fill="#F5F5F5"/>
<path d="M413.358 68.1943H226.904V272.944H413.358V68.1943Z" fill="#E0E0E0"/>
<path d="M433.55 68.1943H240.943V272.944H433.55V68.1943Z" fill="#F5F5F5"/>
<path d="M417.417 256.81V84.3281L257.076 84.3281V256.81H417.417Z" fill="white"/>
<path d="M378.529 214.962V126.11H295.931V214.962H378.529Z" fill="#F5F5F5"/>
<path d="M1364.05 92.0459H1190.84V282.258H1364.05V92.0459Z" fill="#E0E0E0"/>
<path d="M1382.82 92.0459H1203.91V282.258H1382.82V92.0459Z" fill="#F5F5F5"/>
<path d="M1367.85 267.256V107.049L1218.92 107.049V267.256H1367.85Z" fill="white"/>
<path d="M1293.37 233.624C1319.03 233.624 1339.84 212.818 1339.84 187.152C1339.84 161.486 1319.03 140.68 1293.37 140.68C1267.7 140.68 1246.89 161.486 1246.89 187.152C1246.89 212.818 1267.7 233.624 1293.37 233.624Z" fill="#F5F5F5"/>
<path d="M607.064 190.279H468.745V342.17H607.064V190.279Z" fill="#E0E0E0"/>
<path d="M622.033 190.279H479.157V342.17H622.033V190.279Z" fill="#F5F5F5"/>
<path d="M610.057 330.194V202.255H491.133V330.194H610.057Z" fill="white"/>
<path d="M550.612 233.857L518.078 290.209H583.146L550.612 233.857Z" fill="#F5F5F5"/>
<path d="M831.639 1239.34C1187.86 1239.34 1476.63 1222.48 1476.63 1201.69C1476.63 1180.89 1187.86 1164.03 831.639 1164.03C475.423 1164.03 186.653 1180.89 186.653 1201.69C186.653 1222.48 475.423 1239.34 831.639 1239.34Z" fill="#F5F5F5"/>
<path d="M1161.8 360.699L1128.8 347.392C1128.8 347.392 1085.26 426.797 1072.78 430.822C1055.82 436.278 1020.69 451.447 999.863 454.108C997.036 457.435 992.412 467.78 992.844 471.539C1020.82 480.887 1082.3 468.479 1095.47 458.699C1125.44 436.511 1161.8 360.699 1161.8 360.699Z" fill="#E58A7B"/>
<path d="M1171.95 342.635C1178.1 365.356 1144.77 411.063 1144.77 411.063L1101.09 386.579C1101.09 386.579 1109.27 367.784 1119.25 348.656C1135.25 317.753 1164.93 316.721 1171.95 342.635Z" fill="#FFD700"/>
<path opacity="0.2" d="M1171.95 342.635C1178.1 365.356 1144.77 411.063 1144.77 411.063L1101.09 386.579C1101.09 386.579 1109.27 367.784 1119.25 348.656C1135.25 317.753 1164.93 316.721 1171.95 342.635Z" fill="black"/>
<path opacity="0.2" d="M1118.42 396.359L1135.62 406.006L1138.65 353.214C1128.63 360.898 1121.58 384.051 1118.42 396.359Z" fill="black"/>
<path d="M1143.2 325.537C1143.2 325.537 1109.21 401.183 1129.03 542.029H1262.99C1265.12 521.471 1258.07 421.142 1283.59 324.273C1268.89 321.401 1254.02 319.501 1239.08 318.584C1220.12 317.486 1201.12 317.486 1182.16 318.584C1169.02 319.919 1156 322.243 1143.2 325.537V325.537Z" fill="#FFD700"/>
<path opacity="0.2" d="M1143.2 325.537C1143.2 325.537 1109.21 401.183 1129.03 542.029H1262.99C1265.12 521.471 1258.07 421.142 1283.59 324.273C1268.89 321.401 1254.02 319.501 1239.08 318.584C1220.12 317.486 1201.12 317.486 1182.16 318.584C1169.02 319.919 1156 322.243 1143.2 325.537V325.537Z" fill="black"/>
<g style="mix-blend-mode:multiply">
<path d="M1112.13 1204.68C1111.94 1208.27 1162.73 1211.17 1225.57 1211.17C1288.41 1211.17 1339.57 1208.27 1339.77 1204.68C1339.97 1201.09 1289.21 1198.23 1226.34 1198.23C1163.46 1198.23 1112.37 1201.12 1112.13 1204.68Z" fill="#E8ECF1"/>
</g>
<path d="M1201.55 1110.28L1177.79 1119.48L1198.26 1172.35L1222.02 1163.15L1201.55 1110.28Z" fill="#E58A7B"/>
<path d="M1307.5 1179.1H1282.45L1273.27 1121.12H1298.32L1307.5 1179.1Z" fill="#E58A7B"/>
<path d="M1280.72 1176.2H1308.87C1309.36 1176.21 1309.83 1176.38 1310.2 1176.7C1310.57 1177.01 1310.82 1177.45 1310.9 1177.93L1314.52 1200.19C1314.6 1200.75 1314.55 1201.32 1314.39 1201.85C1314.23 1202.39 1313.95 1202.89 1313.58 1203.32C1313.21 1203.74 1312.75 1204.08 1312.23 1204.31C1311.72 1204.54 1311.16 1204.65 1310.6 1204.65C1300.78 1204.48 1296.06 1203.88 1283.69 1203.88C1276.07 1203.88 1260.4 1204.68 1249.82 1204.68C1239.24 1204.68 1238.54 1194.3 1242.9 1193.34C1262.46 1189.11 1270.05 1183.36 1276.57 1177.77C1277.72 1176.76 1279.19 1176.2 1280.72 1176.2V1176.2Z" fill="#263238"/>
<path d="M1197.56 1167.62L1224.17 1159.84C1224.65 1159.7 1225.15 1159.74 1225.61 1159.93C1226.06 1160.12 1226.44 1160.47 1226.67 1160.9L1236.65 1180.86C1236.88 1181.37 1237 1181.92 1236.99 1182.48C1236.99 1183.03 1236.87 1183.58 1236.63 1184.09C1236.39 1184.59 1236.05 1185.04 1235.62 1185.39C1235.19 1185.75 1234.69 1186.01 1234.15 1186.15C1224.47 1188.81 1217.99 1190.44 1205.88 1193.97C1197.53 1196.4 1189.01 1200.35 1180.76 1202.98C1175.04 1204.81 1161.6 1204.88 1154.65 1204.88C1144.37 1204.88 1142.07 1194.03 1146.5 1193.54C1157.64 1192.3 1159.14 1192.87 1165.29 1189.78C1175.36 1185.37 1184.49 1179.07 1192.17 1171.21C1193.62 1169.56 1195.48 1168.32 1197.56 1167.62V1167.62Z" fill="#263238"/>
<path d="M1004.05 453.975L976.511 442.432L965.167 472.97C976.457 474.69 987.942 474.69 999.231 472.97L1004.05 453.975Z" fill="#E58A7B"/>
<path d="M956.019 441.634L955.288 461.926L965.167 472.903L976.511 442.366L956.019 441.634Z" fill="#E58A7B"/>
<path d="M1204.81 1114.77L1180.98 1123.97L1191.54 1151.31L1215.37 1142.11L1204.81 1114.77Z" fill="#CF6F64"/>
<path d="M1298.32 1121.12H1273.27L1278.03 1151.02H1303.08L1298.32 1121.12Z" fill="#CF6F64"/>
<path opacity="0.2" d="M1124.78 503.94C1125.27 509.961 1125.84 516.115 1126.57 522.436L1226.17 490.102C1241.72 485.492 1255.24 475.718 1264.49 462.392C1264.89 453.51 1265.39 444.162 1266.15 434.415C1266.49 429.692 1266.89 424.835 1267.32 419.911C1267.75 414.988 1268.35 409.533 1268.98 404.277L1124.78 503.94Z" fill="black"/>
<path d="M1157.31 394.829L1153.98 394.43C1155.95 377.797 1168.35 364.69 1181.43 365.023V368.35C1169.98 368.117 1159.07 379.926 1157.31 394.829Z" fill="white"/>
<path d="M1175.04 425.533H1174.47V422.207C1185.92 422.639 1196.66 410.697 1198.43 395.827L1201.75 396.226C1199.99 412.493 1187.98 425.533 1175.04 425.533Z" fill="white"/>
<path d="M1237.21 254.482C1232.52 272.811 1227 306.376 1239.08 318.584C1239.08 318.584 1230.63 337.18 1196.6 337.18C1165.49 337.18 1182.16 318.584 1182.16 318.584C1202.85 313.728 1203.22 298.625 1200.49 284.321L1237.21 254.482Z" fill="#E58A7B"/>
<path d="M1222.24 266.657L1200.52 284.321C1201.19 287.608 1201.58 290.947 1201.69 294.3C1208.04 300.621 1220.78 284.62 1222.08 276.437C1222.74 273.215 1222.79 269.899 1222.24 266.657Z" fill="#CF6F64"/>
<path d="M1163.16 254.249C1164.68 256.869 1166.71 259.148 1169.14 260.946C1171.58 262.743 1174.35 264.019 1177.3 264.694C1185.29 266.457 1189.28 259.106 1187.08 251.721C1185.12 245.067 1178.57 236.119 1170.45 237.649C1168.71 238.007 1167.08 238.777 1165.7 239.893C1164.32 241.01 1163.23 242.441 1162.52 244.066C1161.8 245.692 1161.49 247.465 1161.6 249.236C1161.72 251.008 1162.25 252.727 1163.16 254.249V254.249Z" fill="#CF6F64"/>
<path d="M1176.37 195.602C1163.93 201.29 1159.54 250.723 1175.17 258.041C1190.81 265.36 1199.92 184.79 1176.37 195.602Z" fill="#263238"/>
<path d="M1241.01 226.905C1238.01 251.721 1237.68 266.324 1224.37 279.032C1220.25 283.249 1215.04 286.244 1209.32 287.687C1203.6 289.131 1197.6 288.965 1191.97 287.21C1186.34 285.455 1181.3 282.178 1177.42 277.741C1173.53 273.304 1170.95 267.879 1169.95 262.066C1165.93 239.778 1171.48 202.953 1196.36 193.073C1201.59 190.767 1207.34 189.902 1213.02 190.566C1218.69 191.231 1224.09 193.401 1228.64 196.852C1233.19 200.303 1236.74 204.91 1238.92 210.194C1241.09 215.478 1241.81 221.248 1241.01 226.905V226.905Z" fill="#E58A7B"/>
<path d="M1200.12 208.442C1218.55 203.752 1232.09 200.558 1227.23 215.894C1220.81 236.385 1213.1 256.211 1223.44 257.11C1229.76 257.675 1257.7 245.833 1254.15 233.824C1251.05 223.378 1264.13 220.517 1266.45 215.228C1275.07 196.067 1250.42 198.595 1254.81 186.953C1259.2 175.31 1234.85 156.548 1221.55 165.895C1199.89 180.998 1162.73 180.765 1182.26 155.916C1196.26 138.185 1171.28 141.811 1171.28 141.811C1171.28 141.811 1186.38 150.76 1160.97 164.598C1134.09 179.368 1158.74 219.054 1200.12 208.442Z" fill="#263238"/>
<path d="M1250.79 254.249C1247.15 259.513 1241.68 263.236 1235.45 264.694C1227.23 266.457 1224.07 259.106 1227.17 251.721C1229.93 245.067 1237.51 236.119 1245.36 237.649C1253.21 239.179 1255.01 247.729 1250.79 254.249Z" fill="#E58A7B"/>
<path d="M1129.03 542.029C1129.03 542.029 1106.55 743.286 1104.78 819.664C1102.99 899.102 1180.99 1146.96 1180.99 1146.96L1220.91 1130.33C1220.91 1130.33 1174.34 903.859 1180.99 825.851C1188.05 740.791 1217.19 542.162 1217.19 542.162L1129.03 542.029Z" fill="#FFD700"/>
<path opacity="0.2" d="M1184.92 597.283C1166.99 634.474 1179.07 708.024 1188.78 751.602C1192.47 720.832 1196.86 687.433 1201.02 656.529C1200.62 609.026 1196.93 572.334 1184.92 597.283Z" fill="black"/>
<path d="M1219.15 1117.16C1219.35 1117.16 1223.87 1129.87 1223.87 1129.87L1177.83 1149.23L1170.58 1135.72L1219.15 1117.16Z" fill="#FFD700"/>
<path d="M1176.57 542.029C1176.57 542.029 1193.77 733.439 1205.15 805.127C1217.65 883.667 1266.69 1145.23 1266.69 1145.23H1312.56C1312.56 1145.23 1285.08 890.021 1279.89 812.246C1274.24 727.884 1262.99 542.029 1262.99 542.029H1176.57Z" fill="#FFD700"/>
<path d="M1313.26 1133.29C1313.46 1133.29 1314.79 1146.1 1314.79 1146.1H1264.36L1260.77 1131.4L1313.26 1133.29Z" fill="#FFD700"/>
<path opacity="0.2" d="M1295.69 1118.12C1295.59 1118.12 1295.49 1118.09 1295.41 1118.02C1295.33 1117.95 1295.28 1117.86 1295.26 1117.76C1295 1115.43 1270.21 884.898 1265.56 815.04C1260.5 739.261 1250.32 571.17 1250.22 569.473C1250.22 569.418 1250.22 569.363 1250.24 569.31C1250.26 569.258 1250.29 569.21 1250.32 569.169C1250.36 569.129 1250.41 569.096 1250.46 569.074C1250.51 569.052 1250.56 569.041 1250.62 569.041V569.041C1250.73 569.041 1250.83 569.082 1250.91 569.156C1250.99 569.23 1251.04 569.331 1251.05 569.44C1251.05 571.137 1261.33 739.095 1266.39 815.007C1271.04 884.864 1295.83 1115.23 1296.06 1117.72C1296.07 1117.78 1296.07 1117.83 1296.05 1117.89C1296.04 1117.94 1296.01 1117.99 1295.98 1118.04C1295.95 1118.08 1295.9 1118.12 1295.85 1118.14C1295.8 1118.17 1295.75 1118.19 1295.69 1118.19V1118.12Z" fill="black"/>
<path d="M1202.95 233.824C1202.95 235.853 1201.69 237.483 1200.35 237.483C1199.02 237.483 1198.06 235.853 1198.19 233.824C1198.33 231.795 1199.46 230.165 1200.79 230.165C1202.12 230.165 1203.08 231.828 1202.95 233.824Z" fill="#263238"/>
<path d="M1180.13 233.824C1180.13 235.853 1178.83 237.483 1177.53 237.483C1176.24 237.483 1175.24 235.853 1175.34 233.824C1175.44 231.795 1176.64 230.165 1177.97 230.165C1179.3 230.165 1180.26 231.828 1180.13 233.824Z" fill="#263238"/>
<path d="M1187.31 234.855C1184.54 241.051 1180.96 246.856 1176.67 252.12C1180 255.446 1186.22 253.916 1186.22 253.916L1187.31 234.855Z" fill="#DF5753"/>
<path d="M1187.91 262.399C1187.84 262.399 1187.76 262.383 1187.69 262.353C1187.62 262.322 1187.55 262.278 1187.5 262.222C1187.45 262.165 1187.41 262.099 1187.38 262.027C1187.35 261.954 1187.34 261.877 1187.35 261.8C1187.36 261.638 1187.43 261.486 1187.54 261.374C1187.66 261.263 1187.82 261.201 1187.98 261.201C1190.52 261.219 1193.04 260.666 1195.34 259.584C1197.65 258.502 1199.68 256.917 1201.29 254.947C1201.4 254.847 1201.55 254.791 1201.7 254.791C1201.86 254.791 1202 254.847 1202.12 254.947C1202.23 255.059 1202.29 255.208 1202.29 255.363C1202.29 255.518 1202.23 255.667 1202.12 255.779C1200.39 257.873 1198.22 259.554 1195.77 260.7C1193.31 261.845 1190.63 262.426 1187.91 262.399V262.399Z" fill="#263238"/>
<path d="M1207.01 227.703C1206.85 227.785 1206.67 227.827 1206.49 227.827C1206.31 227.827 1206.14 227.785 1205.98 227.703C1204.73 226.898 1203.32 226.398 1201.84 226.242C1200.37 226.086 1198.88 226.279 1197.49 226.805C1197.36 226.872 1197.21 226.912 1197.06 226.922C1196.91 226.931 1196.76 226.911 1196.62 226.861C1196.47 226.812 1196.34 226.734 1196.23 226.633C1196.12 226.532 1196.03 226.409 1195.96 226.272C1195.84 225.976 1195.84 225.644 1195.96 225.346C1196.07 225.047 1196.3 224.807 1196.6 224.676C1198.34 223.965 1200.22 223.685 1202.09 223.859C1203.96 224.033 1205.76 224.655 1207.34 225.674C1207.47 225.76 1207.58 225.871 1207.66 226.001C1207.75 226.13 1207.8 226.274 1207.83 226.426C1207.86 226.578 1207.86 226.733 1207.82 226.884C1207.79 227.035 1207.73 227.177 1207.64 227.304C1207.47 227.494 1207.25 227.633 1207.01 227.703V227.703Z" fill="#263238"/>
<path d="M1171.31 221.05C1171.14 221.007 1170.98 220.915 1170.85 220.784C1170.74 220.675 1170.65 220.546 1170.59 220.403C1170.53 220.26 1170.5 220.107 1170.5 219.952C1170.5 219.797 1170.53 219.644 1170.59 219.501C1170.65 219.358 1170.74 219.229 1170.85 219.12C1172.12 217.69 1173.71 216.574 1175.49 215.859C1177.27 215.143 1179.18 214.848 1181.09 214.996C1181.25 215.019 1181.39 215.074 1181.52 215.156C1181.66 215.239 1181.77 215.348 1181.86 215.475C1181.94 215.603 1182 215.748 1182.03 215.9C1182.06 216.052 1182.06 216.208 1182.03 216.359C1181.95 216.667 1181.77 216.939 1181.52 217.123C1181.26 217.306 1180.94 217.39 1180.63 217.357V217.357C1179.12 217.262 1177.6 217.512 1176.2 218.089C1174.8 218.665 1173.55 219.552 1172.55 220.684C1172.39 220.852 1172.2 220.976 1171.98 221.04C1171.76 221.105 1171.53 221.108 1171.31 221.05V221.05Z" fill="#263238"/>
<path d="M1296.46 357.006L1261.86 347.792C1261.86 347.792 1227.93 431.321 1215.92 436.744C1199.62 444.195 1158.34 470.009 1140.78 482.218C1139.81 486.376 1140.58 497.387 1142.77 500.414C1172.71 494.958 1230.03 472.903 1242 461.693C1269.31 436.112 1296.46 357.006 1296.46 357.006Z" fill="#E58A7B"/>
<path d="M1272.31 1180.6C1270.62 1180.73 1268.94 1180.27 1267.55 1179.3C1267.12 1178.91 1266.8 1178.42 1266.62 1177.87C1266.44 1177.32 1266.41 1176.74 1266.52 1176.17C1266.54 1175.82 1266.66 1175.48 1266.86 1175.18C1267.06 1174.89 1267.33 1174.66 1267.65 1174.51C1270.45 1173.08 1278.26 1178.03 1279.16 1178.6C1279.26 1178.66 1279.34 1178.75 1279.38 1178.86C1279.42 1178.97 1279.43 1179.09 1279.39 1179.2C1279.37 1179.31 1279.31 1179.42 1279.23 1179.51C1279.14 1179.6 1279.04 1179.66 1278.93 1179.7C1276.76 1180.23 1274.54 1180.53 1272.31 1180.6ZM1268.98 1175.41C1268.73 1175.35 1268.47 1175.35 1268.22 1175.41C1268.09 1175.47 1267.98 1175.57 1267.91 1175.7C1267.84 1175.82 1267.81 1175.96 1267.82 1176.1C1267.73 1176.49 1267.74 1176.9 1267.86 1177.27C1267.98 1177.65 1268.19 1178 1268.48 1178.27C1269.78 1179.43 1273.04 1179.56 1277.33 1178.73C1274.78 1177.05 1271.9 1175.92 1268.88 1175.41H1268.98Z" fill="#FFD700"/>
<path d="M1278.76 1179.7C1278.68 1179.73 1278.58 1179.73 1278.5 1179.7C1276 1178.3 1271.31 1172.81 1272.01 1170.02C1272.11 1169.57 1272.36 1169.18 1272.72 1168.9C1273.08 1168.61 1273.52 1168.46 1273.97 1168.45C1274.42 1168.39 1274.87 1168.43 1275.3 1168.56C1275.73 1168.7 1276.13 1168.92 1276.47 1169.22C1279.23 1171.58 1279.39 1178.83 1279.39 1179.2C1279.41 1179.31 1279.39 1179.42 1279.34 1179.52C1279.28 1179.61 1279.2 1179.69 1279.09 1179.73C1278.98 1179.75 1278.87 1179.74 1278.76 1179.7ZM1274.3 1169.55H1274.07C1273.31 1169.55 1273.21 1169.98 1273.17 1170.15C1272.77 1171.78 1275.73 1175.94 1278.2 1177.9C1278.19 1175.09 1277.31 1172.35 1275.7 1170.05C1275.32 1169.71 1274.82 1169.54 1274.3 1169.55V1169.55Z" fill="#FFD700"/>
<path d="M1183.99 1176.44C1181.95 1177.15 1179.74 1177.15 1177.7 1176.44C1177.24 1176.19 1176.85 1175.82 1176.56 1175.38C1176.28 1174.94 1176.11 1174.43 1176.07 1173.91C1176.03 1173.58 1176.07 1173.25 1176.19 1172.94C1176.32 1172.63 1176.51 1172.36 1176.77 1172.15C1179.43 1169.75 1190.31 1172.15 1191.54 1172.61C1191.66 1172.64 1191.76 1172.71 1191.83 1172.81C1191.91 1172.9 1191.94 1173.02 1191.94 1173.14C1191.94 1173.27 1191.91 1173.39 1191.85 1173.5C1191.78 1173.61 1191.69 1173.69 1191.57 1173.74C1189.12 1174.85 1186.59 1175.75 1183.99 1176.44V1176.44ZM1178.57 1172.48C1178.19 1172.55 1177.83 1172.73 1177.53 1172.98C1177.43 1173.06 1177.35 1173.16 1177.3 1173.29C1177.25 1173.41 1177.24 1173.55 1177.27 1173.68C1177.29 1174.03 1177.4 1174.36 1177.59 1174.66C1177.77 1174.96 1178.03 1175.2 1178.33 1175.37C1180.1 1176.3 1184.19 1175.57 1189.48 1173.34C1185.91 1172.44 1182.23 1172.15 1178.57 1172.48V1172.48Z" fill="#FFD700"/>
<path d="M1191.47 1173.74H1191.21C1187.88 1173.14 1181.23 1169.32 1181.03 1166.46C1181.03 1165.79 1181.33 1164.86 1182.92 1164.33C1183.46 1164.14 1184.04 1164.05 1184.61 1164.09C1185.18 1164.12 1185.74 1164.27 1186.25 1164.53C1189.84 1166.29 1191.74 1172.68 1191.84 1172.98C1191.86 1173.08 1191.86 1173.18 1191.83 1173.28C1191.8 1173.38 1191.75 1173.47 1191.67 1173.54C1191.62 1173.62 1191.55 1173.69 1191.47 1173.74V1173.74ZM1183.59 1165.33H1183.26C1182.23 1165.69 1182.23 1166.12 1182.23 1166.26C1182.23 1167.99 1187.05 1171.15 1190.41 1172.21C1189.63 1169.54 1188 1167.2 1185.75 1165.56C1185.08 1165.22 1184.31 1165.14 1183.59 1165.33Z" fill="#FFD700"/>
<path d="M1143.6 480.255L1108.91 496.223L1104.88 506.202L1117.69 514.818C1117.69 514.818 1141.64 512.223 1148.46 496.821L1143.6 480.255Z" fill="#E58A7B"/>
<path d="M1145.07 500.98C1144.29 494.313 1142.09 487.892 1138.61 482.151L1144.1 478.026C1148.23 484.641 1150.87 492.077 1151.82 499.815L1145.07 500.98Z" fill="#263238"/>
<path d="M1150.99 484.979C1151.72 486.132 1152.08 487.484 1152.02 488.85C1151.96 490.215 1151.48 491.529 1150.64 492.612C1149.81 493.694 1148.66 494.493 1147.35 494.9C1146.05 495.307 1144.65 495.302 1143.35 494.886C1142.05 494.47 1140.9 493.662 1140.08 492.574C1139.25 491.485 1138.78 490.168 1138.73 488.802C1138.67 487.436 1139.04 486.087 1139.79 484.939C1140.53 483.79 1141.61 482.898 1142.87 482.384C1144.29 481.66 1145.94 481.526 1147.46 482.012C1148.98 482.498 1150.25 483.564 1150.99 484.979V484.979Z" fill="#263238"/>
<path d="M1085.46 509.13L1090.08 513.787L1121.22 500.481L1108.91 496.223L1085.46 509.13Z" fill="#E58A7B"/>
<path opacity="0.2" d="M1219.15 1117.16C1219.35 1117.16 1223.87 1129.87 1223.87 1129.87L1177.83 1149.23L1170.58 1135.72L1219.15 1117.16Z" fill="black"/>
<path opacity="0.2" d="M1313.26 1133.29C1313.46 1133.29 1314.79 1146.1 1314.79 1146.1H1264.36L1260.77 1131.4L1313.26 1133.29Z" fill="black"/>
<path d="M1305.47 347.426C1314.62 376.932 1278.86 417.283 1278.86 417.283L1229.46 397.124C1235.32 380.07 1242.07 363.336 1249.69 346.993C1264.86 314.293 1296.23 317.653 1305.47 347.426Z" fill="#FFD700"/>
<path opacity="0.2" d="M1305.47 347.426C1314.62 376.932 1278.86 417.283 1278.86 417.283L1229.46 397.124C1235.32 380.07 1242.07 363.336 1249.69 346.993C1264.86 314.293 1296.23 317.653 1305.47 347.426Z" fill="black"/>
<path d="M814.607 51.7944H793.351V55.2208H814.607V51.7944Z" fill="#FFD700"/>
<path d="M1089.77 187.406L1087.2 244.499L1090.62 244.653L1093.2 187.561L1089.77 187.406Z" fill="#FFD700"/>
<path d="M1083.16 67.1631H690.627L654.101 884.565H1046.63L1083.16 67.1631Z" fill="#FFD700"/>
<path opacity="0.56" d="M1071.45 78.407H678.917L642.391 895.809H1034.93L1071.45 78.407Z" fill="#FAFAFA"/>
<path opacity="0.07" d="M1059.74 89.6174H667.208L630.649 907.019H1023.18L1059.74 89.6174Z" fill="#FFD700"/>
<path d="M1015.07 446.125H680.015L677.22 508.664H1012.27L1015.07 446.125Z" fill="white"/>
<path d="M864.273 400.484H682.044L680.813 428.46H863.042L864.273 400.484Z" fill="#FFD700"/>
<path d="M1007.51 614.914H672.463L669.669 677.453H1004.72L1007.51 614.914Z" fill="white"/>
<path opacity="0.47" d="M946.073 761.915H720.765L717.405 836.862H942.713L946.073 761.915Z" fill="#FFD700"/>
<path d="M931.004 848.505H705.696C705.598 848.53 705.495 848.53 705.396 848.505C705.363 848.408 705.363 848.302 705.396 848.205L708.723 773.225C708.723 773.174 708.733 773.123 708.754 773.077C708.774 773.03 708.804 772.988 708.842 772.954C708.879 772.919 708.924 772.893 708.972 772.877C709.02 772.86 709.071 772.854 709.122 772.859H934.43C934.471 772.838 934.517 772.828 934.563 772.828C934.609 772.828 934.655 772.838 934.696 772.859C934.719 772.899 934.732 772.945 934.732 772.992C934.732 773.039 934.719 773.085 934.696 773.125L931.436 848.272C931.396 848.35 931.333 848.414 931.256 848.456C931.179 848.497 931.091 848.514 931.004 848.505V848.505ZM706.095 847.706H930.604L933.931 773.524H709.422L706.095 847.706Z" fill="white"/>
<path d="M824.92 569.274H674.493L673.262 597.283H823.656L824.92 569.274Z" fill="#FFD700"/>
<path d="M941.782 244.103C940.922 262.304 934.449 279.792 923.253 294.167C914.964 305.026 904.298 313.841 892.073 319.936C879.849 326.031 866.39 329.244 852.73 329.329C841.691 329.413 830.752 327.237 820.587 322.933C810.421 318.63 801.244 312.29 793.622 304.306C785.999 296.322 780.091 286.861 776.263 276.507C772.435 266.154 770.767 255.126 771.362 244.103C772.532 221.229 782.396 199.667 798.937 183.825C815.477 167.983 837.445 159.058 860.348 158.876C871.394 158.773 882.345 160.937 892.523 165.233C902.701 169.529 911.89 175.866 919.522 183.854C927.154 191.841 933.067 201.309 936.895 211.671C940.724 222.034 942.387 233.072 941.782 244.103V244.103Z" fill="white"/>
<path d="M949.799 176.707C949.582 181.546 947.861 186.198 944.875 190.013C942.666 192.897 939.828 195.238 936.576 196.858C933.325 198.478 929.746 199.334 926.114 199.361C922.594 199.382 919.123 198.541 916.003 196.912C912.883 195.282 910.21 192.914 908.217 190.013C905.577 186.093 904.271 181.427 904.491 176.707C904.813 170.634 907.439 164.912 911.834 160.709C916.229 156.505 922.062 154.137 928.143 154.086C931.077 154.059 933.985 154.634 936.688 155.773C939.392 156.913 941.833 158.595 943.862 160.714C945.891 162.833 947.464 165.346 948.485 168.096C949.506 170.846 949.953 173.777 949.799 176.707V176.707Z" fill="#FFD700"/>
<path d="M716.108 477.394C715.948 480.075 714.778 482.595 712.833 484.447C710.889 486.299 708.314 487.345 705.629 487.374C704.333 487.389 703.047 487.139 701.851 486.637C700.655 486.136 699.575 485.395 698.677 484.459C697.779 483.524 697.083 482.414 696.631 481.199C696.178 479.984 695.98 478.689 696.049 477.394C696.193 474.708 697.358 472.178 699.306 470.323C701.254 468.468 703.837 467.427 706.527 467.414C707.823 467.404 709.106 467.658 710.3 468.161C711.493 468.664 712.572 469.405 713.469 470.339C714.366 471.274 715.062 472.381 715.516 473.594C715.97 474.807 716.171 476.1 716.108 477.394V477.394Z" fill="#263238"/>
<path d="M760.95 477.394C760.798 480.078 759.63 482.602 757.684 484.456C755.738 486.31 753.159 487.353 750.471 487.374C749.178 487.385 747.895 487.131 746.703 486.627C745.512 486.124 744.435 485.382 743.541 484.447C742.647 483.512 741.953 482.404 741.503 481.191C741.053 479.978 740.856 478.686 740.924 477.394C741.068 474.714 742.229 472.189 744.169 470.335C746.11 468.48 748.685 467.436 751.369 467.414C752.666 467.399 753.952 467.65 755.148 468.151C756.343 468.652 757.424 469.393 758.322 470.329C759.22 471.264 759.916 472.374 760.368 473.589C760.82 474.804 761.018 476.099 760.95 477.394V477.394Z" fill="#263238"/>
<path d="M805.825 477.394C805.673 480.078 804.505 482.602 802.559 484.456C800.613 486.31 798.034 487.353 795.347 487.374C794.051 487.384 792.768 487.131 791.574 486.628C790.381 486.125 789.302 485.383 788.405 484.449C787.508 483.515 786.812 482.407 786.358 481.194C785.904 479.981 785.703 478.688 785.766 477.394C785.918 474.711 787.086 472.186 789.032 470.332C790.978 468.479 793.557 467.436 796.245 467.414C797.541 467.399 798.827 467.65 800.023 468.151C801.219 468.652 802.299 469.393 803.197 470.329C804.095 471.264 804.791 472.374 805.243 473.589C805.696 474.804 805.894 476.099 805.825 477.394V477.394Z" fill="#263238"/>
<path d="M708.557 646.184C708.397 648.864 707.227 651.385 705.282 653.236C703.338 655.088 700.763 656.134 698.078 656.163C696.783 656.174 695.499 655.92 694.306 655.417C693.112 654.914 692.034 654.173 691.137 653.238C690.24 652.304 689.543 651.196 689.089 649.983C688.635 648.77 688.434 647.477 688.498 646.184C688.65 643.5 689.817 640.975 691.764 639.122C693.71 637.268 696.289 636.225 698.976 636.204C700.271 636.193 701.555 636.447 702.749 636.95C703.942 637.453 705.02 638.194 705.917 639.129C706.814 640.063 707.511 641.171 707.965 642.384C708.419 643.597 708.62 644.89 708.557 646.184Z" fill="#263238"/>
<path d="M753.399 646.184C753.247 648.861 752.084 651.381 750.145 653.234C748.206 655.087 745.635 656.134 742.953 656.163C741.657 656.179 740.371 655.928 739.175 655.427C737.979 654.926 736.899 654.184 736.001 653.249C735.103 652.314 734.407 651.204 733.954 649.989C733.502 648.773 733.304 647.478 733.373 646.184C733.525 643.5 734.693 640.975 736.639 639.122C738.585 637.268 741.164 636.225 743.851 636.204C745.145 636.193 746.427 636.447 747.619 636.95C748.811 637.454 749.887 638.196 750.782 639.131C751.676 640.065 752.37 641.173 752.82 642.386C753.27 643.599 753.467 644.892 753.399 646.184V646.184Z" fill="#263238"/>
<path d="M798.374 646.184C798.222 648.867 797.054 651.392 795.108 653.246C793.162 655.099 790.583 656.142 787.895 656.163C786.601 656.169 785.32 655.912 784.128 655.407C782.937 654.903 781.861 654.161 780.965 653.228C780.069 652.295 779.372 651.189 778.916 649.978C778.461 648.767 778.256 647.476 778.315 646.184C778.474 643.503 779.645 640.983 781.589 639.131C783.534 637.279 786.108 636.233 788.793 636.204C790.09 636.189 791.376 636.439 792.571 636.941C793.767 637.442 794.848 638.183 795.745 639.118C796.643 640.054 797.34 641.163 797.792 642.379C798.244 643.594 798.442 644.889 798.374 646.184V646.184Z" fill="#263238"/>
<path d="M843.149 646.184C842.989 648.864 841.819 651.385 839.875 653.236C837.93 655.088 835.356 656.134 832.671 656.163C831.377 656.169 830.095 655.912 828.904 655.407C827.713 654.903 826.636 654.161 825.74 653.228C824.844 652.295 824.147 651.189 823.692 649.978C823.236 648.767 823.031 647.476 823.09 646.184C823.25 643.503 824.42 640.983 826.365 639.131C828.309 637.279 830.883 636.233 833.569 636.204C834.864 636.193 836.148 636.447 837.341 636.95C838.535 637.453 839.613 638.194 840.51 639.129C841.407 640.063 842.104 641.171 842.557 642.384C843.011 643.597 843.213 644.89 843.149 646.184V646.184Z" fill="#263238"/>
<path d="M888.191 646.184C888.031 648.864 886.861 651.385 884.916 653.236C882.972 655.088 880.397 656.134 877.712 656.163C876.416 656.179 875.13 655.928 873.934 655.427C872.738 654.926 871.658 654.184 870.76 653.249C869.862 652.314 869.165 651.204 868.713 649.989C868.261 648.773 868.063 647.478 868.132 646.184C868.284 643.5 869.451 640.975 871.398 639.122C873.344 637.268 875.923 636.225 878.61 636.204C879.905 636.193 881.189 636.447 882.383 636.95C883.576 637.453 884.654 638.194 885.551 639.129C886.448 640.063 887.145 641.171 887.599 642.384C888.053 643.597 888.254 644.89 888.191 646.184Z" fill="#263238"/>
<path d="M881.383 239.664C895.306 226.048 896.045 204.224 883.033 190.918C870.021 177.612 848.185 177.863 834.262 191.479C820.338 205.094 819.6 226.919 832.612 240.225C845.624 253.531 867.459 253.28 881.383 239.664Z" fill="#FFD700"/>
<path d="M923.253 294.167C914.964 305.026 904.298 313.841 892.073 319.936C879.848 326.031 866.39 329.244 852.73 329.329C839.484 329.441 826.413 326.293 814.672 320.161C802.93 314.029 792.877 305.102 785.4 294.167C801.567 278.067 827.148 267.555 855.491 267.555C883.833 267.555 908.516 278.067 923.253 294.167Z" fill="#FFD700"/>
<path opacity="0.1" d="M881.383 239.664C895.306 226.048 896.045 204.224 883.033 190.918C870.021 177.612 848.185 177.863 834.262 191.479C820.338 205.094 819.6 226.919 832.612 240.225C845.624 253.531 867.459 253.28 881.383 239.664Z" fill="white"/>
<path opacity="0.1" d="M923.253 294.167C914.964 305.026 904.298 313.841 892.073 319.936C879.848 326.031 866.39 329.244 852.73 329.329C839.484 329.441 826.413 326.293 814.672 320.161C802.93 314.029 792.877 305.102 785.4 294.167C801.567 278.067 827.148 267.555 855.491 267.555C883.833 267.555 908.516 278.067 923.253 294.167Z" fill="white"/>
<path d="M433.816 523.733C430.656 530.653 427.33 538.27 424.435 545.655C421.541 553.04 418.581 560.658 416.019 568.243C410.789 583.19 406.806 598.545 404.11 614.149L403.378 619.039C403.309 619.878 403.387 620.723 403.611 621.534C404.396 624.291 405.633 626.899 407.27 629.252C411.542 635.342 416.498 640.922 422.04 645.885C427.884 651.32 434.013 656.439 440.403 661.22C446.79 666.143 453.51 670.933 460.129 675.458L453.909 687.134C438.102 680.246 423.098 671.646 409.167 661.486C401.734 656.066 395.027 649.716 389.207 642.591C385.758 638.35 383.068 633.545 381.257 628.387C380.204 625.165 379.665 621.797 379.66 618.407C379.66 617.609 379.66 616.444 379.66 615.879V614.249L379.993 610.922C381.9 593.591 385.544 576.495 390.871 559.893C393.465 551.71 396.226 543.56 399.387 535.609C402.547 527.659 405.807 519.875 409.832 511.791L433.816 523.733Z" fill="#E58A7B"/>
<path d="M455.439 673.395L478.958 661.486L472.87 687.3C472.87 687.3 456.736 691.824 449.252 683.974L455.439 673.395Z" fill="#E58A7B"/>
<path d="M500.481 665.711L494.227 687.067L472.87 687.3L478.958 661.486L500.481 665.711Z" fill="#E58A7B"/>
<path d="M533.68 399.187C534.938 403.797 536.689 408.258 538.902 412.493C538.256 413.227 537.423 413.772 536.491 414.07C535.56 414.369 534.566 414.41 533.613 414.19L533.68 399.187Z" fill="#DF5753"/>
<path d="M532.981 399.387C534.359 399.387 535.476 397.674 535.476 395.561C535.476 393.448 534.359 391.736 532.981 391.736C531.603 391.736 530.486 393.448 530.486 395.561C530.486 397.674 531.603 399.387 532.981 399.387Z" fill="#263238"/>
<path d="M532.249 391.869L537.306 390.438C537.306 390.438 534.844 394.364 532.249 391.869Z" fill="#263238"/>
<path d="M468.712 423.604C471.739 439.072 474.766 467.448 463.922 477.794C463.922 477.794 468.18 493.495 496.954 493.495C528.59 493.495 512.057 477.794 512.057 477.794C494.792 473.669 495.225 460.861 498.252 448.819L468.712 423.604Z" fill="#E58A7B"/>
<path d="M460.296 388.342C461.892 414.19 462.026 425.167 475.066 438.44C494.726 458.4 526.128 450.815 532.282 425.134C537.838 401.848 534.312 363.526 508.997 353.247C503.44 350.958 497.391 350.124 491.422 350.825C485.453 351.525 479.762 353.737 474.886 357.251C470.01 360.764 466.111 365.464 463.558 370.904C461.005 376.345 459.882 382.347 460.296 388.342V388.342Z" fill="#E58A7B"/>
<path d="M462.857 359.268C449.884 363.992 432.586 360.466 439.372 400.484C446.557 442.865 435.513 456.803 435.513 456.803C435.513 456.803 484.713 467.282 534.944 456.171C534.944 456.171 519.608 429.359 523.9 409.599C529.388 384.65 525.064 375.435 525.064 375.435C525.064 375.435 481.087 352.615 462.857 359.268Z" fill="#263238"/>
<path d="M517.745 401.815C517.759 406.73 519.166 411.54 521.804 415.687C525.33 421.076 529.488 419.013 530.519 413.291C531.451 408.268 530.752 399.386 526.261 395.927C521.77 392.467 517.812 395.86 517.745 401.815Z" fill="#E58A7B"/>
<path d="M451.58 363.626C447.854 353.147 465.618 337.014 503.208 343.667C540.798 350.32 542.428 381.623 542.428 381.623L534.844 372.575L535.177 382.088L496.555 389.507L451.58 363.626Z" fill="#263238"/>
<path d="M454.774 479.557C454.552 478.038 454.932 476.492 455.833 475.25C456.734 474.007 458.085 473.165 459.597 472.904C471.307 470.974 497.919 467.049 511.292 468.912C521.272 470.309 523.866 476.097 524.299 480.854C524.366 481.687 524.255 482.525 523.972 483.311C523.689 484.097 523.241 484.814 522.658 485.413C522.075 486.012 521.371 486.479 520.592 486.782C519.814 487.086 518.979 487.22 518.145 487.175L460.329 484.58C458.966 484.511 457.669 483.973 456.656 483.058C455.644 482.143 454.979 480.906 454.774 479.557V479.557Z" fill="#FFD700"/>
<path opacity="0.6" d="M454.774 479.557C454.552 478.038 454.932 476.492 455.833 475.25C456.734 474.007 458.085 473.165 459.597 472.904C471.307 470.974 497.919 467.049 511.292 468.912C521.272 470.309 523.866 476.097 524.299 480.854C524.366 481.687 524.255 482.525 523.972 483.311C523.689 484.097 523.241 484.814 522.658 485.413C522.075 486.012 521.371 486.479 520.592 486.782C519.814 487.086 518.979 487.22 518.145 487.175L460.329 484.58C458.966 484.511 457.669 483.973 456.656 483.058C455.644 482.143 454.979 480.906 454.774 479.557V479.557Z" fill="black"/>
<path d="M488.206 1060.71L509.662 1075.61L545.555 1026.94L524.099 1012.07L488.206 1060.71Z" fill="#E58A7B"/>
<path d="M438.174 1059.74L460.828 1072.65L492.597 1021.19L469.943 1008.28L438.174 1059.74Z" fill="#E58A7B"/>
<path d="M545.522 1026.94L527.026 1052.02L505.57 1037.15L524.066 1012.07L545.522 1026.94Z" fill="#CF6F64"/>
<path d="M469.91 1008.28L492.597 1021.22L476.23 1047.73L453.543 1034.79L469.91 1008.28Z" fill="#CF6F64"/>
<path d="M506.302 642.026C506.302 642.026 590.065 747.577 574.33 848.538C561.656 930.072 488.139 1040.48 488.139 1040.48L453.576 1023.32C477.938 974.499 498.728 923.98 515.783 872.157C521.042 856.067 522.577 838.993 520.272 822.224C517.967 805.454 511.882 789.428 502.477 775.354C460.03 713.38 392.035 750.272 437.775 642.026H506.302Z" fill="#FFD700"/>
<path opacity="0.6" d="M506.302 642.026C506.302 642.026 590.065 747.577 574.33 848.538C561.656 930.072 488.139 1040.48 488.139 1040.48L453.576 1023.32C477.938 974.499 498.728 923.98 515.783 872.157C521.042 856.067 522.577 838.993 520.272 822.224C517.967 805.454 511.882 789.428 502.477 775.354C460.03 713.38 392.035 750.272 437.775 642.026H506.302Z" fill="black"/>
<path opacity="0.4" d="M547.385 709.821L535.21 697.712C535.21 698.677 558.795 844.28 565.415 885.197C569.321 873.244 572.313 861.012 574.363 848.605C582.148 799.072 565.881 748.475 547.385 709.821Z" fill="black"/>
<path d="M543.693 642.026C543.693 642.026 644.554 774.689 647.415 854.227C649.776 920.758 537.638 1049.66 537.638 1049.66L505.038 1028.57C505.038 1028.57 570.671 937.025 587.204 862.244C580.817 788.128 445.759 642.026 445.759 642.026H543.693Z" fill="#FFD700"/>
<path opacity="0.6" d="M543.693 642.026C543.693 642.026 644.554 774.689 647.415 854.227C649.776 920.758 537.638 1049.66 537.638 1049.66L505.038 1028.57C505.038 1028.57 570.671 937.025 587.204 862.244C580.817 788.128 445.759 642.026 445.759 642.026H543.693Z" fill="black"/>
<path d="M418.913 483.715C408.135 486.276 397.79 525.463 397.79 525.463L439.937 553.606C439.937 553.606 453.975 522.602 449.052 509.03C443.962 494.892 432.453 480.488 418.913 483.715Z" fill="#FFD700"/>
<path opacity="0.2" d="M427.163 508.963L424.236 543.127L439.904 553.639C444.23 543.899 447.433 533.699 449.451 523.234L427.163 508.963Z" fill="black"/>
<path d="M556.167 484.48C556.167 484.48 568.608 488.838 543.693 641.992H437.708C439.505 598.747 439.538 572.135 418.913 483.715C433.753 480.656 448.796 478.677 463.922 477.793C479.946 476.644 496.032 476.644 512.057 477.793C532.748 479.69 556.167 484.48 556.167 484.48Z" fill="#FFD700"/>
<path d="M566.945 508.963C569.34 515.616 571.868 522.768 574.53 529.654C577.191 536.54 579.719 543.626 582.414 550.612L590.564 571.503L592.626 576.725L593.691 579.32L594.19 580.617C594.19 580.85 594.19 580.85 594.19 580.817C593.582 579.96 592.785 579.254 591.861 578.754C590.545 577.98 589.061 577.535 587.537 577.457C586.269 577.418 585.009 577.656 583.844 578.156C582.314 578.854 582.314 579.154 582.347 579.12C582.624 578.899 582.87 578.641 583.079 578.355C584.92 575.938 586.514 573.341 587.836 570.604C589.399 567.544 590.896 564.284 592.393 560.991C595.321 554.338 598.015 547.452 600.71 540.499C603.404 533.547 605.966 526.527 608.461 519.442L616.045 498.219L628.852 501.545C626.324 516.714 623.064 531.484 619.139 546.52C617.243 554.005 615.014 561.423 612.486 568.908C611.222 572.667 609.824 576.393 608.228 580.218C606.563 584.37 604.514 588.357 602.107 592.127C601.222 593.396 600.244 594.597 599.179 595.72C597.481 597.555 595.419 599.016 593.125 600.011C591.09 600.885 588.885 601.294 586.672 601.209C584.192 601.116 581.777 600.395 579.653 599.113C577.147 597.549 575.067 595.389 573.598 592.826C573.099 591.961 572.667 591.096 572.367 590.464L571.735 589.2L570.471 586.605L567.943 581.449C564.617 574.53 561.29 567.544 558.396 560.525C555.502 553.506 552.441 546.387 549.581 539.235C546.72 532.083 544.158 524.931 541.73 517.213L566.945 508.963Z" fill="#E58A7B"/>
<path d="M556.167 484.48C568.908 487.507 583.245 525.164 583.245 525.164L545.356 557.398C545.356 557.398 520.839 516.348 525.796 502.809C530.952 488.705 539.534 480.521 556.167 484.48Z" fill="#FFD700"/>
<path d="M622.066 486.309L635.372 475.199L644.62 489.603L637.801 501.612C637.801 501.612 626.956 511.591 617.376 506.502C615.855 503.084 615.49 499.263 616.337 495.619C617.183 491.976 619.195 488.707 622.066 486.309V486.309Z" fill="#E58A7B"/>
<path d="M659.39 475.232L658.392 478.858L637.335 482.384L635.273 475.199L659.39 475.232Z" fill="#E58A7B"/>
<path d="M540.233 1051.36L502.244 1026.81L509.063 1014.97L551.743 1041.21L540.233 1051.36Z" fill="#FFD700"/>
<path d="M475.698 1070.92C472.365 1070.51 469.162 1069.38 466.317 1067.59C466.199 1067.55 466.098 1067.47 466.026 1067.37C465.954 1067.27 465.915 1067.15 465.915 1067.03C465.915 1066.9 465.954 1066.78 466.026 1066.68C466.098 1066.58 466.199 1066.5 466.317 1066.46C467.348 1066.13 476.296 1063.37 478.891 1065.5C479.183 1065.74 479.404 1066.05 479.533 1066.41C479.662 1066.77 479.693 1067.15 479.623 1067.53C479.577 1068.12 479.378 1068.7 479.047 1069.2C478.715 1069.7 478.26 1070.11 477.727 1070.39C477.104 1070.73 476.407 1070.91 475.698 1070.92V1070.92ZM468.213 1067.26C472.371 1069.39 475.698 1070.15 477.294 1069.36C477.642 1069.16 477.935 1068.88 478.144 1068.55C478.354 1068.21 478.474 1067.82 478.492 1067.43C478.492 1066.89 478.492 1066.66 478.193 1066.53C476.795 1065.4 471.806 1066.26 468.146 1067.26H468.213Z" fill="#263238"/>
<path d="M466.55 1067.82C466.374 1067.82 466.207 1067.75 466.084 1067.63C466.034 1067.53 466.009 1067.43 466.009 1067.33C466.009 1067.22 466.034 1067.12 466.084 1067.03C466.084 1066.73 468.246 1059.51 471.639 1057.88C472.073 1057.68 472.544 1057.58 473.02 1057.58C473.496 1057.58 473.967 1057.68 474.4 1057.88C474.868 1058.03 475.272 1058.33 475.549 1058.73C475.826 1059.13 475.961 1059.62 475.931 1060.11C475.698 1063.1 469.61 1067.23 466.816 1067.92L466.55 1067.82ZM473.003 1058.74C472.68 1058.75 472.362 1058.83 472.072 1058.98C470.009 1059.97 468.313 1063.87 467.481 1066.23C470.408 1065 474.434 1061.74 474.567 1059.91C474.567 1059.61 474.567 1059.24 473.802 1058.91C473.553 1058.78 473.283 1058.69 473.003 1058.64V1058.74Z" fill="#263238"/>
<path d="M523.168 1085.29C519.409 1085.29 514.186 1080.47 511.325 1077.51C511.252 1077.4 511.213 1077.28 511.213 1077.16C511.213 1077.03 511.252 1076.91 511.325 1076.81C511.391 1076.7 511.484 1076.61 511.595 1076.55C511.707 1076.49 511.832 1076.47 511.957 1076.47C513.288 1076.47 524.831 1078.2 526.461 1081.46C526.634 1081.76 526.725 1082.09 526.725 1082.43C526.725 1082.77 526.634 1083.1 526.461 1083.39C526.217 1083.9 525.847 1084.34 525.388 1084.66C524.928 1084.99 524.393 1085.19 523.833 1085.26L523.168 1085.29ZM513.521 1077.97C517.712 1082.03 521.405 1084.29 523.5 1084.03C523.867 1083.98 524.217 1083.84 524.519 1083.63C524.82 1083.41 525.065 1083.13 525.23 1082.79C525.305 1082.68 525.344 1082.55 525.344 1082.41C525.344 1082.28 525.305 1082.14 525.23 1082.03C524.365 1080.23 518.211 1078.7 513.521 1077.97Z" fill="#263238"/>
<path d="M513.887 1077.8C513.14 1077.83 512.393 1077.77 511.658 1077.64C511.555 1077.62 511.458 1077.58 511.376 1077.52C511.295 1077.45 511.231 1077.37 511.192 1077.27C511.142 1077.17 511.116 1077.07 511.116 1076.96C511.116 1076.85 511.142 1076.74 511.192 1076.64C511.392 1076.41 515.882 1070.99 520.14 1070.62C521.346 1070.53 522.54 1070.91 523.467 1071.68C524.764 1072.81 524.698 1073.81 524.365 1074.44C523.534 1076.71 517.779 1077.8 513.887 1077.8ZM513.022 1076.57C516.747 1076.77 522.702 1075.54 523.467 1073.91C523.467 1073.91 523.733 1073.38 522.868 1072.65C522.524 1072.35 522.122 1072.12 521.687 1071.99C521.252 1071.85 520.794 1071.8 520.34 1071.85C517.472 1072.65 514.918 1074.31 513.022 1076.61V1076.57Z" fill="#263238"/>
<path d="M467.448 1064.23L439.239 1056.25C438.752 1056.1 438.229 1056.14 437.768 1056.35C437.308 1056.57 436.943 1056.95 436.744 1057.41L427.23 1078.8C427.006 1079.35 426.901 1079.94 426.922 1080.53C426.942 1081.12 427.088 1081.7 427.349 1082.23C427.609 1082.76 427.98 1083.23 428.435 1083.61C428.891 1083.99 429.421 1084.27 429.991 1084.42C439.97 1087.02 444.761 1087.75 457.169 1091.31C464.82 1093.44 475.731 1097.4 486.276 1100.39C496.821 1103.39 500.347 1093.11 496.256 1090.91C477.76 1081.13 476.297 1074.28 471.24 1066.96C470.335 1065.63 468.992 1064.67 467.448 1064.23V1064.23Z" fill="#FFD700"/>
<path d="M512.09 1073.61L488.006 1056.98C487.598 1056.68 487.094 1056.55 486.591 1056.59C486.089 1056.64 485.621 1056.88 485.278 1057.25L469.311 1074.41C468.922 1074.86 468.631 1075.38 468.459 1075.94C468.287 1076.51 468.237 1077.1 468.313 1077.69C468.388 1078.27 468.588 1078.83 468.897 1079.34C469.207 1079.84 469.62 1080.27 470.109 1080.6C478.592 1086.29 482.983 1088.58 493.595 1095.93C500.248 1100.46 513.121 1110.5 522.103 1116.76C531.085 1123.01 537.771 1114.43 534.578 1111.04C520.274 1095.77 517.147 1086.19 514.785 1077.51C514.375 1075.93 513.42 1074.55 512.09 1073.61Z" fill="#FFD700"/>
<path d="M492.563 1042.68L449.152 1021.09L453.643 1009.31L500.015 1032.06L492.563 1042.68Z" fill="#FFD700"/>
<path d="M436.112 635.772L432.452 645.352C432.087 646.084 432.951 646.849 434.182 646.849H544.225C545.19 646.849 545.988 646.383 546.054 645.785L546.986 636.271C546.986 635.639 546.221 635.073 545.19 635.073H437.841C437.518 635.043 437.193 635.09 436.892 635.212C436.591 635.333 436.323 635.525 436.112 635.772V635.772Z" fill="#FFD700"/>
<path opacity="0.4" d="M436.112 635.772L432.452 645.352C432.087 646.084 432.951 646.849 434.182 646.849H544.225C545.19 646.849 545.988 646.383 546.054 645.785L546.986 636.271C546.986 635.639 546.221 635.073 545.19 635.073H437.841C437.518 635.043 437.193 635.09 436.892 635.212C436.591 635.333 436.323 635.525 436.112 635.772V635.772Z" fill="white"/>
<path d="M453.443 647.781H450.549C449.983 647.781 449.551 647.481 449.584 647.115L450.948 634.774C450.948 634.441 451.48 634.142 452.046 634.142H454.94C455.505 634.142 455.938 634.441 455.905 634.774L454.541 647.115C454.508 647.481 454.009 647.781 453.443 647.781Z" fill="#FFD700"/>
<path d="M521.305 647.781H518.444C517.879 647.781 517.446 647.481 517.479 647.115L518.81 634.774C518.81 634.441 519.375 634.142 519.941 634.142H522.802C523.367 634.142 523.833 634.441 523.767 634.774L522.436 647.115C522.27 647.481 521.904 647.781 521.305 647.781Z" fill="#FFD700"/>
<g style="mix-blend-mode:multiply">
<path d="M450.915 1211.13C500.134 1211.13 540.033 1208.24 540.033 1204.68C540.033 1201.12 500.134 1198.23 450.915 1198.23C401.696 1198.23 361.796 1201.12 361.796 1204.68C361.796 1208.24 401.696 1211.13 450.915 1211.13Z" fill="#F5F5F5"/>
</g>
<path d="M505.204 1195.56C489.436 1190.97 471.939 1185.09 461.36 1178.93C461.061 1178.73 460.728 1178.63 460.429 1178.47V1107.08H492.33C494.752 1106.94 497.028 1105.87 498.691 1104.11C500.355 1102.34 501.282 1100.01 501.282 1097.58C501.282 1095.16 500.355 1092.82 498.691 1091.06C497.028 1089.29 494.752 1088.23 492.33 1088.08H460.595V762.68H441.434V1088.08H409.732C408.438 1088.01 407.141 1088.2 405.922 1088.64C404.703 1089.08 403.588 1089.77 402.644 1090.66C401.701 1091.55 400.949 1092.62 400.435 1093.81C399.921 1095 399.656 1096.28 399.656 1097.58C399.656 1098.88 399.921 1100.16 400.435 1101.35C400.949 1102.54 401.701 1103.62 402.644 1104.5C403.588 1105.39 404.703 1106.08 405.922 1106.52C407.141 1106.97 408.438 1107.16 409.732 1107.08H441.434V1178.37C441.135 1178.37 440.835 1178.63 440.536 1178.83C429.791 1185.09 412.427 1190.97 396.659 1195.47C395.594 1195.79 394.679 1196.48 394.08 1197.42C393.482 1198.36 393.239 1199.48 393.396 1200.58C393.553 1201.68 394.099 1202.69 394.935 1203.42C395.772 1204.16 396.843 1204.57 397.956 1204.58H503.907C504.97 1204.51 505.976 1204.07 506.758 1203.35C507.539 1202.62 508.048 1201.65 508.2 1200.6C508.352 1199.54 508.137 1198.47 507.592 1197.55C507.047 1196.64 506.204 1195.93 505.204 1195.56Z" fill="#E0E0E0"/>
<path d="M510.094 729.547H391.802C382.285 729.547 374.57 737.262 374.57 746.779V781.941C374.57 791.457 382.285 799.172 391.802 799.172H510.094C519.611 799.172 527.326 791.457 527.326 781.941V746.779C527.326 737.262 519.611 729.547 510.094 729.547Z" fill="#FFD700"/>
<path d="M390.704 799.206V805.26C390.704 810.25 396.126 814.308 402.78 814.308H499.25C505.903 814.308 511.325 810.25 511.325 805.26V799.206H390.704Z" fill="#FFD700"/>
<path opacity="0.3" d="M390.704 799.206V805.26C390.704 810.25 396.126 814.308 402.78 814.308H499.25C505.903 814.308 511.325 810.25 511.325 805.26V799.206H390.704Z" fill="white"/>
</svg>
